<svg width="84" height="88" viewBox="0 0 84 88" fill="none" xmlns="http://www.w3.org/2000/svg">
<g opacity="0.8" clip-path="url(#clip0_1_115)">
<path d="M80.54 87.7H2.69C1.21 87.7 0 86.5 0 85.01V2.69C0 1.2 1.2 0 2.69 0H80.54C82.02 0 83.23 1.2 83.23 2.69V85.01C83.23 86.49 82.03 87.7 80.54 87.7ZM5.37 82.32H77.86V5.37H5.37V82.32Z" fill="#1B1B1B"/>
<path d="M66.1099 22.58H17.1199C15.6399 22.58 14.4299 21.38 14.4299 19.89C14.4299 18.4 15.6299 17.2 17.1199 17.2H66.1099C67.5899 17.2 68.7999 18.4 68.7999 19.89C68.7999 21.38 67.5999 22.58 66.1099 22.58Z" fill="#1B1B1B"/>
<path d="M66.1099 38.55H17.1199C15.6399 38.55 14.4299 37.35 14.4299 35.86C14.4299 34.37 15.6299 33.17 17.1199 33.17H66.1099C67.5899 33.17 68.7999 34.37 68.7999 35.86C68.7999 37.35 67.5999 38.55 66.1099 38.55Z" fill="#1B1B1B"/>
<path d="M66.1099 54.52H17.1199C15.6399 54.52 14.4299 53.32 14.4299 51.83C14.4299 50.34 15.6299 49.14 17.1199 49.14H66.1099C67.5899 49.14 68.7999 50.34 68.7999 51.83C68.7999 53.32 67.5999 54.52 66.1099 54.52Z" fill="#1B1B1B"/>
<path d="M37.6199 70.49H17.1199C15.6399 70.49 14.4299 69.29 14.4299 67.8C14.4299 66.31 15.6299 65.11 17.1199 65.11H37.6299C39.1099 65.11 40.3199 66.31 40.3199 67.8C40.3199 69.29 39.1199 70.49 37.6299 70.49H37.6199Z" fill="#1B1B1B"/>
</g>
<defs>
<clipPath id="clip0_1_115">
<rect width="83.23" height="87.7" fill="white"/>
</clipPath>
</defs>
</svg>
