<svg width="245" height="34" viewBox="0 0 245 34" fill="none" xmlns="http://www.w3.org/2000/svg">
<path d="M24.992 33.052C24.896 32.476 24.8 31.888 24.704 31.288C24.608 30.712 24.464 30.172 24.272 29.668C24.104 29.14 24.272 28.876 24.776 28.876H25.604C26.084 28.876 26.432 28.804 26.648 28.66C26.84 28.516 26.936 28.216 26.936 27.76V21.82C26.936 21.34 26.744 21.256 26.36 21.568C25.784 21.976 24.776 22.18 23.336 22.18H20.384C19.304 22.18 18.572 22.072 18.188 21.856C17.444 21.448 17.072 20.776 17.072 19.84V16.528C17.072 15.976 16.796 15.7 16.244 15.7C15.716 15.7 15.416 15.976 15.344 16.528C15.152 18.04 14.732 19.288 14.084 20.272C13.46 21.232 13.22 21.916 13.364 22.324C13.508 22.708 14.132 22.9 15.236 22.9H22.652C23.012 22.9 23.3 23.008 23.516 23.224C23.732 23.44 23.84 23.728 23.84 24.088V31.36C23.84 31.72 23.732 32.008 23.516 32.224C23.3 32.44 23.012 32.548 22.652 32.548H11.456C11.096 32.548 10.808 32.44 10.592 32.224C10.376 32.008 10.268 31.72 10.268 31.36V24.268C10.268 23.884 10.1 23.776 9.764 23.944L8.576 24.448C8.24 24.568 8.012 24.484 7.892 24.196L7.352 23.26C7.136 22.972 7.028 23.008 7.028 23.368V32.584C7.028 32.944 6.92 33.232 6.704 33.448C6.488 33.664 6.2 33.772 5.84 33.772H2.996C2.636 33.772 2.348 33.664 2.132 33.448C1.916 33.232 1.808 32.944 1.808 32.584V12.388C1.808 12.028 1.916 11.74 2.132 11.524C2.348 11.308 2.636 11.2 2.996 11.2H8.072C8.648 11.2 8.84 10.924 8.648 10.372L8.288 9.544C8.24 9.424 8.192 9.304 8.144 9.184C7.784 8.56 7.856 8.176 8.36 8.032L9.116 7.816C10.052 7.552 10.04 7.42 9.08 7.42H1.844C1.484 7.42 1.196 7.312 0.98 7.096C0.764 6.88 0.656 6.592 0.656 6.232V4.288C0.656 3.928 0.764 3.64 0.98 3.424C1.196 3.208 1.484 3.1 1.844 3.1H13.076C13.436 3.1 13.724 2.992 13.94 2.776C14.156 2.56 14.264 2.272 14.264 1.912V1.732C14.264 1.372 14.372 1.084 14.588 0.868C14.804 0.651999 15.092 0.543999 15.452 0.543999H18.548C18.908 0.543999 19.196 0.651999 19.412 0.868C19.628 1.084 19.736 1.372 19.736 1.732V1.912C19.736 2.272 19.844 2.56 20.06 2.776C20.276 2.992 20.564 3.1 20.924 3.1H32.192C32.552 3.1 32.84 3.208 33.056 3.424C33.272 3.64 33.38 3.928 33.38 4.288V6.232C33.38 6.592 33.272 6.88 33.056 7.096C32.84 7.312 32.552 7.42 32.192 7.42H24.776C24.368 7.42 24.152 7.468 24.128 7.564C24.104 7.636 24.296 7.744 24.704 7.888L25.388 8.14C25.58 8.188 25.7 8.296 25.748 8.464C25.82 8.608 25.808 8.776 25.712 8.968L24.956 10.408C24.836 10.648 24.812 10.84 24.884 10.984C24.98 11.128 25.16 11.2 25.424 11.2H30.896C31.256 11.2 31.544 11.308 31.76 11.524C31.976 11.74 32.084 12.028 32.084 12.388V29.884C32.084 32.044 31.112 33.316 29.168 33.7C28.568 33.82 27.908 33.88 27.188 33.88H25.892C25.364 33.88 25.064 33.604 24.992 33.052ZM15.524 11.2H18.008C18.488 11.2 18.836 10.984 19.052 10.552L19.664 9.292C19.736 9.124 19.808 8.968 19.88 8.824C19.952 8.656 20.024 8.476 20.096 8.284C20.192 8.068 20.18 7.876 20.06 7.708C19.964 7.516 19.76 7.42 19.448 7.42H14.156C13.844 7.42 13.628 7.504 13.508 7.672C13.412 7.84 13.424 8.056 13.544 8.32L13.94 9.22C14.036 9.436 14.12 9.64 14.192 9.832C14.264 10.024 14.336 10.216 14.408 10.408C14.6 10.936 14.972 11.2 15.524 11.2ZM7.028 18.688C7.028 19.408 7.28 19.768 7.784 19.768C7.952 19.768 8.204 19.66 8.54 19.444C8.9 19.228 9.272 18.88 9.656 18.4C10.064 17.92 10.34 17.476 10.484 17.068C10.652 16.636 10.628 16.3 10.412 16.06C10.22 15.82 9.932 15.7 9.548 15.7H8.216C7.856 15.7 7.568 15.808 7.352 16.024C7.136 16.24 7.028 16.528 7.028 16.888V18.688ZM21.572 16.96C21.572 17.296 21.668 17.512 21.86 17.608C22.076 17.68 22.364 17.716 22.724 17.716C23.084 17.716 23.324 17.644 23.444 17.5C23.564 17.356 23.66 17.068 23.732 16.636C23.804 16.204 24.068 16.06 24.524 16.204C24.716 16.3 24.956 16.384 25.244 16.456L26.288 16.816C26.72 16.984 26.936 16.84 26.936 16.384C26.936 15.928 26.72 15.7 26.288 15.7H22.22C21.788 15.7 21.572 15.904 21.572 16.312V16.96ZM16.1 28.84H17.972C18.716 28.84 19.088 28.468 19.088 27.724C19.088 26.98 18.716 26.608 17.972 26.608H16.1C15.356 26.608 14.984 26.98 14.984 27.724C14.984 28.468 15.356 28.84 16.1 28.84ZM43.424 14.26V2.992C43.424 2.632 43.532 2.344 43.748 2.128C43.964 1.912 44.252 1.804 44.612 1.804H61.388C61.748 1.804 62.036 1.912 62.252 2.128C62.468 2.344 62.576 2.632 62.576 2.992V14.26C62.576 14.62 62.468 14.908 62.252 15.124C62.036 15.34 61.748 15.448 61.388 15.448H44.612C44.252 15.448 43.964 15.34 43.748 15.124C43.532 14.908 43.424 14.62 43.424 14.26ZM50.012 11.056H55.988C56.348 11.056 56.636 10.948 56.852 10.732C57.068 10.516 57.176 10.228 57.176 9.868V7.492C57.176 7.132 57.068 6.844 56.852 6.628C56.636 6.412 56.348 6.304 55.988 6.304H50.012C49.652 6.304 49.364 6.412 49.148 6.628C48.932 6.844 48.824 7.132 48.824 7.492V9.868C48.824 10.228 48.932 10.516 49.148 10.732C49.364 10.948 49.652 11.056 50.012 11.056ZM37.34 31.504V18.904C37.34 18.544 37.448 18.256 37.664 18.04C37.88 17.824 38.168 17.716 38.528 17.716H50.732C51.092 17.716 51.38 17.824 51.596 18.04C51.812 18.256 51.92 18.544 51.92 18.904V31.504C51.92 31.864 51.812 32.152 51.596 32.368C51.38 32.584 51.092 32.692 50.732 32.692H38.528C38.168 32.692 37.88 32.584 37.664 32.368C37.448 32.152 37.34 31.864 37.34 31.504ZM54.116 31.504V18.904C54.116 18.544 54.224 18.256 54.44 18.04C54.656 17.824 54.944 17.716 55.304 17.716H67.508C67.868 17.716 68.156 17.824 68.372 18.04C68.588 18.256 68.696 18.544 68.696 18.904V31.504C68.696 31.864 68.588 32.152 68.372 32.368C68.156 32.584 67.868 32.692 67.508 32.692H55.304C54.944 32.692 54.656 32.584 54.44 32.368C54.224 32.152 54.116 31.864 54.116 31.504ZM43.676 28.156H45.62C45.98 28.156 46.268 28.048 46.484 27.832C46.7 27.616 46.808 27.328 46.808 26.968V23.62C46.808 23.26 46.7 22.972 46.484 22.756C46.268 22.54 45.98 22.432 45.62 22.432H43.676C43.316 22.432 43.028 22.54 42.812 22.756C42.596 22.972 42.488 23.26 42.488 23.62V26.968C42.488 27.328 42.596 27.616 42.812 27.832C43.028 28.048 43.316 28.156 43.676 28.156ZM60.452 28.156H62.396C62.756 28.156 63.044 28.048 63.26 27.832C63.476 27.616 63.584 27.328 63.584 26.968V23.62C63.584 23.26 63.476 22.972 63.26 22.756C63.044 22.54 62.756 22.432 62.396 22.432H60.452C60.092 22.432 59.804 22.54 59.588 22.756C59.372 22.972 59.264 23.26 59.264 23.62V26.968C59.264 27.328 59.372 27.616 59.588 27.832C59.804 28.048 60.092 28.156 60.452 28.156ZM86.804 33.088C86.636 32.872 86.444 32.68 86.228 32.512L85.472 31.864C85.088 31.6 84.896 31.708 84.896 32.188C84.896 32.668 84.656 32.908 84.176 32.908H74.456C74.096 32.908 73.808 32.8 73.592 32.584C73.376 32.368 73.268 32.08 73.268 31.72V23.476C73.268 23.116 73.376 22.828 73.592 22.612C73.808 22.396 74.096 22.288 74.456 22.288H83.708C84.068 22.288 84.356 22.396 84.572 22.612C84.788 22.828 84.896 23.116 84.896 23.476V27.076C84.896 27.988 85.16 28.444 85.688 28.444C86.288 28.444 87.128 27.508 88.208 25.636C88.76 24.484 89.132 23.128 89.324 21.568C89.372 21.208 89.288 20.92 89.072 20.704C88.856 20.464 88.568 20.344 88.208 20.344H87.524C87.164 20.344 86.876 20.236 86.66 20.02C86.444 19.804 86.336 19.516 86.336 19.156V9.292C86.336 8.932 86.444 8.644 86.66 8.428C86.876 8.212 87.164 8.104 87.524 8.104H88.712C89.048 8.104 89.276 8.02 89.396 7.852C89.516 7.66 89.468 7.336 89.252 6.88C88.748 5.776 88.088 4.648 87.272 3.496C87.104 3.28 87.032 3.064 87.056 2.848C87.104 2.632 87.26 2.464 87.524 2.344L90.224 0.975998C90.464 0.879998 90.692 0.831998 90.908 0.831998C91.148 0.831998 91.424 1.024 91.736 1.408C92.312 2.104 92.84 2.884 93.32 3.748C93.824 4.588 94.16 5.152 94.328 5.44C94.592 5.992 94.448 6.388 93.896 6.628C93.656 6.772 93.392 6.916 93.104 7.06L92.132 7.564C91.508 7.924 91.544 8.104 92.24 8.104H94.22C94.7 8.104 95.048 7.888 95.264 7.456C96.656 4.456 97.472 2.464 97.712 1.48C97.976 0.759999 98.468 0.471999 99.188 0.615999L102.32 1.336C102.872 1.432 103.04 1.756 102.824 2.308L101.42 5.548C101.252 5.956 101.072 6.376 100.88 6.808C100.688 7.216 100.664 7.54 100.808 7.78C100.952 7.996 101.24 8.104 101.672 8.104H102.932C103.292 8.104 103.58 8.212 103.796 8.428C104.012 8.644 104.12 8.932 104.12 9.292V19.156C104.12 19.516 104.012 19.804 103.796 20.02C103.58 20.236 103.292 20.344 102.932 20.344H101.672C101.312 20.344 101.024 20.452 100.808 20.668C100.592 20.884 100.484 21.172 100.484 21.532V27.364C100.484 27.7 100.544 27.928 100.664 28.048C100.784 28.144 101 28.192 101.312 28.192C101.84 28.192 102.152 27.76 102.248 26.896C102.296 26.608 102.344 26.248 102.392 25.816C102.44 25.36 102.668 25.228 103.076 25.42C103.172 25.468 103.28 25.516 103.4 25.564C103.52 25.588 103.736 25.66 104.048 25.78C104.36 25.9 104.828 26.056 105.452 26.248L106.208 26.5C106.448 26.548 106.628 26.668 106.748 26.86C106.892 27.052 106.916 27.448 106.82 28.048C106.748 28.624 106.616 29.272 106.424 29.992C106.256 30.688 105.992 31.276 105.632 31.756C104.864 32.716 103.568 33.196 101.744 33.196H99.116C97.988 33.196 97.196 33.064 96.74 32.8C95.876 32.344 95.444 31.6 95.444 30.568V20.92C95.444 20.536 95.252 20.344 94.868 20.344C94.508 20.344 94.304 20.536 94.256 20.92C93.824 26.536 91.748 30.652 88.028 33.268C87.908 33.364 87.728 33.412 87.488 33.412C87.248 33.412 87.02 33.304 86.804 33.088ZM73.7 4.396V2.668C73.7 2.308 73.808 2.02 74.024 1.804C74.24 1.588 74.528 1.48 74.888 1.48H82.844C83.204 1.48 83.492 1.588 83.708 1.804C83.924 2.02 84.032 2.308 84.032 2.668V4.396C84.032 4.756 83.924 5.044 83.708 5.26C83.492 5.476 83.204 5.584 82.844 5.584H74.888C74.528 5.584 74.24 5.476 74.024 5.26C73.808 5.044 73.7 4.756 73.7 4.396ZM71.936 9.508V7.924C71.936 7.564 72.044 7.276 72.26 7.06C72.476 6.844 72.764 6.736 73.124 6.736H84.392C84.752 6.736 85.04 6.844 85.256 7.06C85.472 7.276 85.58 7.564 85.58 7.924V9.508C85.58 9.868 85.472 10.156 85.256 10.372C85.04 10.588 84.752 10.696 84.392 10.696H73.124C72.764 10.696 72.476 10.588 72.26 10.372C72.044 10.156 71.936 9.868 71.936 9.508ZM73.664 14.692V13.036C73.664 12.676 73.772 12.388 73.988 12.172C74.204 11.956 74.492 11.848 74.852 11.848H82.844C83.204 11.848 83.492 11.956 83.708 12.172C83.924 12.388 84.032 12.676 84.032 13.036V14.692C84.032 15.052 83.924 15.34 83.708 15.556C83.492 15.772 83.204 15.88 82.844 15.88H74.852C74.492 15.88 74.204 15.772 73.988 15.556C73.772 15.34 73.664 15.052 73.664 14.692ZM92.636 15.808H97.82C98.18 15.808 98.468 15.7 98.684 15.484C98.9 15.268 99.008 14.98 99.008 14.62V13.792C99.008 13.432 98.9 13.144 98.684 12.928C98.468 12.712 98.18 12.604 97.82 12.604H92.636C92.276 12.604 91.988 12.712 91.772 12.928C91.556 13.144 91.448 13.432 91.448 13.792V14.62C91.448 14.98 91.556 15.268 91.772 15.484C91.988 15.7 92.276 15.808 92.636 15.808ZM73.664 19.84V18.22C73.664 17.86 73.772 17.572 73.988 17.356C74.204 17.14 74.492 17.032 74.852 17.032H82.844C83.204 17.032 83.492 17.14 83.708 17.356C83.924 17.572 84.032 17.86 84.032 18.22V19.84C84.032 20.2 83.924 20.488 83.708 20.704C83.492 20.92 83.204 21.028 82.844 21.028H74.852C74.492 21.028 74.204 20.92 73.988 20.704C73.772 20.488 73.664 20.2 73.664 19.84ZM79.1 28.948C79.436 28.948 79.7 28.84 79.892 28.624C80.108 28.408 80.216 28.132 80.216 27.796V27.4C80.216 27.064 80.108 26.8 79.892 26.608C79.7 26.392 79.436 26.284 79.1 26.284C78.764 26.284 78.488 26.392 78.272 26.608C78.056 26.8 77.948 27.064 77.948 27.4V27.796C77.948 28.132 78.056 28.408 78.272 28.624C78.488 28.84 78.764 28.948 79.1 28.948ZM119.96 33.376C119.792 33.448 119.552 33.484 119.24 33.484C118.928 33.484 118.676 33.316 118.484 32.98C118.292 32.668 118.112 32.404 117.944 32.188C117.8 31.996 117.644 31.792 117.476 31.576C117.044 31.024 116.732 30.664 116.54 30.496C115.964 29.872 116.06 29.404 116.828 29.092C119.924 27.82 122.072 26.14 123.272 24.052C124.4 22.132 124.964 19.48 124.964 16.096V2.92C124.964 2.56 125.072 2.272 125.288 2.056C125.504 1.84 125.792 1.732 126.152 1.732H139.256C139.616 1.732 139.904 1.84 140.12 2.056C140.336 2.272 140.444 2.56 140.444 2.92V29.308C140.444 31.66 139.388 33.028 137.276 33.412C136.628 33.532 135.92 33.592 135.152 33.592H133.388C132.812 33.592 132.488 33.292 132.416 32.692C132.392 32.572 132.368 32.44 132.344 32.296C132.296 31.48 132.056 30.376 131.624 28.984C131.48 28.456 131.66 28.192 132.164 28.192H133.928C134.408 28.192 134.756 28.132 134.972 28.012C135.212 27.868 135.332 27.532 135.332 27.004V22.108C135.332 21.748 135.224 21.46 135.008 21.244C134.792 21.028 134.504 20.92 134.144 20.92H130.652C130.364 20.92 130.112 21.016 129.896 21.208C129.68 21.376 129.548 21.604 129.5 21.892C128.612 25.9 126.584 29.044 123.416 31.324C122.384 32.068 121.232 32.752 119.96 33.376ZM108.872 22.9V3.604C108.872 3.244 108.98 2.956 109.196 2.74C109.412 2.524 109.7 2.416 110.06 2.416H121.652C122.012 2.416 122.3 2.524 122.516 2.74C122.732 2.956 122.84 3.244 122.84 3.604V22.9C122.84 23.26 122.732 23.548 122.516 23.764C122.3 23.98 122.012 24.088 121.652 24.088H110.06C109.7 24.088 109.412 23.98 109.196 23.764C108.98 23.548 108.872 23.26 108.872 22.9ZM131.228 9.364H134.144C134.504 9.364 134.792 9.256 135.008 9.04C135.224 8.824 135.332 8.536 135.332 8.176V7.708C135.332 7.348 135.224 7.06 135.008 6.844C134.792 6.628 134.504 6.52 134.144 6.52H131.228C130.868 6.52 130.58 6.628 130.364 6.844C130.148 7.06 130.04 7.348 130.04 7.708V8.176C130.04 8.536 130.148 8.824 130.364 9.04C130.58 9.256 130.868 9.364 131.228 9.364ZM115.208 10.948H116.648C117.008 10.948 117.296 10.84 117.512 10.624C117.728 10.408 117.836 10.12 117.836 9.76V8.176C117.836 7.816 117.728 7.528 117.512 7.312C117.296 7.096 117.008 6.988 116.648 6.988H115.208C114.848 6.988 114.56 7.096 114.344 7.312C114.128 7.528 114.02 7.816 114.02 8.176V9.76C114.02 10.12 114.128 10.408 114.344 10.624C114.56 10.84 114.848 10.948 115.208 10.948ZM131.228 16.6H134.144C134.504 16.6 134.792 16.492 135.008 16.276C135.224 16.06 135.332 15.772 135.332 15.412V14.872C135.332 14.512 135.224 14.224 135.008 14.008C134.792 13.792 134.504 13.684 134.144 13.684H131.228C130.868 13.684 130.58 13.792 130.364 14.008C130.148 14.224 130.04 14.512 130.04 14.872V15.412C130.04 15.772 130.148 16.06 130.364 16.276C130.58 16.492 130.868 16.6 131.228 16.6ZM115.208 19.336H116.648C117.008 19.336 117.296 19.228 117.512 19.012C117.728 18.796 117.836 18.508 117.836 18.148V16.528C117.836 16.168 117.728 15.88 117.512 15.664C117.296 15.448 117.008 15.34 116.648 15.34H115.208C114.848 15.34 114.56 15.448 114.344 15.664C114.128 15.88 114.02 16.168 114.02 16.528V18.148C114.02 18.508 114.128 18.796 114.344 19.012C114.56 19.228 114.848 19.336 115.208 19.336ZM150.56 5.98L151.568 6.016H152.576C153.632 6.016 154.76 6.004 155.96 5.98C156.32 5.932 156.536 5.788 156.608 5.548C156.8 4.924 156.92 4.384 156.968 3.928C157.04 3.448 157.16 3.088 157.328 2.848C157.592 2.488 157.952 2.308 158.408 2.308C158.456 2.308 159.464 2.356 161.432 2.452C161.768 2.452 162.02 2.56 162.188 2.776C162.356 2.968 162.44 3.184 162.44 3.424C162.44 3.616 162.404 3.94 162.332 4.396C162.26 4.828 162.2 5.104 162.152 5.224C162.128 5.392 162.128 5.488 162.152 5.512C162.2 5.536 162.248 5.548 162.296 5.548C162.368 5.548 162.416 5.548 162.44 5.548C164.72 5.38 166.436 5.176 167.588 4.936C167.732 4.912 167.864 4.9 167.984 4.9C168.272 4.9 168.536 4.984 168.776 5.152C169.088 5.392 169.268 5.752 169.316 6.232C169.388 7.72 169.424 8.476 169.424 8.5C169.424 8.812 169.34 9.088 169.172 9.328C168.956 9.592 168.548 9.76 167.948 9.832C166.724 10.048 165.296 10.216 163.664 10.336L160.676 10.588C160.412 10.612 160.208 10.756 160.064 11.02L159.164 12.604C159.188 12.604 159.296 12.592 159.488 12.568C159.68 12.544 159.932 12.532 160.244 12.532C162.98 12.532 164.756 13.624 165.572 15.808C165.716 16.216 165.956 16.42 166.292 16.42C166.388 16.42 166.556 16.384 166.796 16.312C167.06 16.24 167.396 16.144 167.804 16.024C168.212 15.904 168.632 15.796 169.064 15.7L171.728 15.052C171.896 15.004 172.064 14.98 172.232 14.98C172.424 14.98 172.604 15.028 172.772 15.124C173.084 15.316 173.288 15.592 173.384 15.952L174.068 18.184C174.14 18.352 174.176 18.544 174.176 18.76C174.176 18.976 174.104 19.18 173.96 19.372C173.744 19.732 173.408 19.936 172.952 19.984C170.72 20.248 168.572 20.68 166.508 21.28C166.364 21.304 166.244 21.388 166.148 21.532C166.052 21.652 166.004 21.796 166.004 21.964V24.232C166.004 24.64 165.872 24.976 165.608 25.24C165.344 25.504 165.008 25.636 164.6 25.636H162.008C161.6 25.636 161.264 25.504 161 25.24C160.736 24.976 160.604 24.64 160.604 24.232V24.088C160.604 23.92 160.58 23.812 160.532 23.764C160.508 23.692 160.46 23.656 160.388 23.656C160.196 23.656 159.968 23.764 159.704 23.98C159.464 24.196 159.26 24.352 159.092 24.448C158.684 24.832 158.48 25.168 158.48 25.456C158.48 25.96 158.792 26.296 159.416 26.464C160.112 26.656 161.048 26.752 162.224 26.752C163.424 26.752 164.336 26.74 164.96 26.716C165.584 26.668 166.232 26.596 166.904 26.5C168.272 26.332 169.484 26.116 170.54 25.852C170.636 25.828 170.732 25.816 170.828 25.816C171.092 25.816 171.296 25.912 171.44 26.104C171.536 26.248 171.584 26.428 171.584 26.644C171.584 26.716 171.572 26.812 171.548 26.932C171.524 27.052 171.512 27.244 171.512 27.508C171.512 27.532 171.464 28.168 171.368 29.416V30.136V30.172C171.32 30.82 171.008 31.216 170.432 31.36H170.396C168.236 31.768 165.944 31.972 163.52 31.972C159.104 31.972 156.044 31.06 154.34 29.236C153.572 28.42 153.188 27.424 153.188 26.248C153.188 25.072 153.44 24.088 153.944 23.296C154.472 22.504 155.108 21.796 155.852 21.172C156.956 20.26 158.528 19.36 160.568 18.472C160.568 18.04 160.424 17.704 160.136 17.464C159.872 17.224 159.392 17.068 158.696 16.996C158.552 16.972 158.408 16.96 158.264 16.96C157.736 16.96 157.208 17.068 156.68 17.284C156.032 17.572 155.288 18.124 154.448 18.94C154.448 18.964 153.404 19.948 151.316 21.892C151.076 22.108 150.8 22.216 150.488 22.216C150.2 22.216 149.936 22.096 149.696 21.856L147.788 19.948C147.476 19.636 147.32 19.3 147.32 18.94C147.32 18.484 147.548 18.1 148.004 17.788C149.732 16.564 151.52 14.692 153.368 12.172C153.536 11.836 153.62 11.62 153.62 11.524C153.644 11.428 153.632 11.368 153.584 11.344C153.488 11.176 153.284 11.092 152.972 11.092C152.948 11.092 152.672 11.104 152.144 11.128C151.64 11.128 151.172 11.128 150.74 11.128C150.308 11.128 149.96 11.008 149.696 10.768C149.456 10.528 149.336 10.216 149.336 9.832C149.264 8.2 149.228 7.372 149.228 7.348C149.228 6.94 149.348 6.616 149.588 6.376C149.852 6.112 150.176 5.98 150.56 5.98ZM185.3 32.44V17.32C185.3 16.744 185.108 16.684 184.724 17.14C184.628 17.26 184.532 17.38 184.436 17.5C184.34 17.596 184.232 17.704 184.112 17.824C184.016 17.944 183.92 18.052 183.824 18.148C183.752 18.22 183.668 18.316 183.572 18.436C183.404 18.604 183.212 18.688 182.996 18.688C182.78 18.688 182.576 18.592 182.384 18.4C181.712 17.728 180.956 17.104 180.116 16.528C179.492 16.048 179.456 15.532 180.008 14.98C182.96 11.74 185.516 7.492 187.676 2.236C187.796 1.876 188 1.624 188.288 1.48C188.576 1.336 188.9 1.324 189.26 1.444L191.816 2.308C192.512 2.572 192.752 3.04 192.536 3.712C192.104 4.912 191.672 5.944 191.24 6.808C190.808 7.672 190.592 8.224 190.592 8.464V11.812C190.592 12.436 190.712 12.748 190.952 12.748C191.192 12.748 191.492 12.472 191.852 11.92C192.236 11.368 192.668 10.672 193.148 9.832C193.652 8.992 194.12 8.128 194.552 7.24C195.488 5.32 196.184 3.532 196.64 1.876C196.76 1.516 196.952 1.252 197.216 1.084C197.504 0.915998 197.828 0.891998 198.188 1.012L200.78 1.768C201.116 1.864 201.356 2.044 201.5 2.308C201.644 2.548 201.668 2.824 201.572 3.136C201.476 3.424 201.38 3.712 201.284 4C201.212 4.264 201.104 4.588 200.96 4.972C200.816 5.356 200.84 5.704 201.032 6.016C201.224 6.304 201.596 6.448 202.148 6.448H212.084C212.444 6.448 212.732 6.556 212.948 6.772C213.164 6.988 213.272 7.276 213.272 7.636V10.156C213.272 10.516 213.164 10.804 212.948 11.02C212.732 11.236 212.444 11.344 212.084 11.344H205.28C204.92 11.344 204.632 11.452 204.416 11.668C204.2 11.884 204.092 12.172 204.092 12.532V13.216C204.092 13.576 204.2 13.864 204.416 14.08C204.632 14.296 204.92 14.404 205.28 14.404H210.896C211.256 14.404 211.544 14.512 211.76 14.728C211.976 14.944 212.084 15.232 212.084 15.592V17.86C212.084 18.22 211.976 18.508 211.76 18.724C211.544 18.94 211.256 19.048 210.896 19.048H205.28C204.92 19.048 204.632 19.156 204.416 19.372C204.2 19.588 204.092 19.876 204.092 20.236V20.884C204.092 21.244 204.2 21.532 204.416 21.748C204.632 21.964 204.92 22.072 205.28 22.072H210.896C211.256 22.072 211.544 22.18 211.76 22.396C211.976 22.612 212.084 22.9 212.084 23.26V25.78C212.084 26.14 211.976 26.428 211.76 26.644C211.544 26.86 211.256 26.968 210.896 26.968H205.28C204.92 26.968 204.632 27.076 204.416 27.292C204.2 27.508 204.092 27.796 204.092 28.156V32.332C204.092 32.692 203.984 32.98 203.768 33.196C203.552 33.412 203.264 33.52 202.904 33.52H199.988C199.628 33.52 199.34 33.412 199.124 33.196C198.908 32.98 198.8 32.692 198.8 32.332V11.704C198.8 11.464 198.668 11.344 198.404 11.344C198.164 11.344 197.984 11.44 197.864 11.632C197.768 11.824 197.612 12.1 197.396 12.46C197.18 12.82 196.916 13.228 196.604 13.684C196.316 14.14 196.004 14.608 195.668 15.088C195.356 15.568 195.032 16.012 194.696 16.42C193.976 17.332 193.496 17.788 193.256 17.788C193.016 17.788 192.824 17.728 192.68 17.608C192.56 17.464 192.452 17.356 192.356 17.284C192.26 17.212 192.152 17.128 192.032 17.032C191.912 16.936 191.792 16.852 191.672 16.78C191.552 16.684 191.432 16.588 191.312 16.492C191.192 16.396 191.072 16.348 190.952 16.348C190.712 16.348 190.592 16.528 190.592 16.888V32.44C190.592 32.8 190.484 33.088 190.268 33.304C190.052 33.52 189.764 33.628 189.404 33.628H186.488C186.128 33.628 185.84 33.52 185.624 33.304C185.408 33.088 185.3 32.8 185.3 32.44ZM237.896 30.82C236.624 31.228 235.4 31.432 234.224 31.432C233.072 31.432 232.004 31.336 231.02 31.144C230.036 30.976 229.124 30.676 228.284 30.244C226.364 29.212 225.404 27.64 225.404 25.528C225.404 23.968 225.968 22.696 227.096 21.712C228.152 20.8 229.436 20.344 230.948 20.344C233.924 20.344 236.012 21.676 237.212 24.34C237.356 24.7 237.536 24.88 237.752 24.88C238.04 24.88 238.304 24.508 238.544 23.764C238.76 23.116 238.868 22.492 238.868 21.892C238.868 21.292 238.736 20.74 238.472 20.236C238.208 19.708 237.872 19.264 237.464 18.904C236.552 18.16 235.484 17.788 234.26 17.788C233.06 17.788 231.956 17.908 230.948 18.148C229.94 18.388 229.016 18.892 228.176 19.66L225.548 21.82C225.284 22.06 224.984 22.18 224.648 22.18C224.312 22.18 224 22.024 223.712 21.712L221.984 19.876C221.672 19.54 221.516 19.204 221.516 18.868C221.516 18.436 221.768 18.052 222.272 17.716C225.416 15.796 228.68 12.856 232.064 8.896C232.184 8.752 232.268 8.62 232.316 8.5C232.292 8.5 232.244 8.5 232.172 8.5C232.148 8.5 231.548 8.608 230.372 8.824C229.004 9.088 227.612 9.28 226.196 9.4C226.1 9.4 226.028 9.4 225.98 9.4C225.716 9.4 225.476 9.328 225.26 9.184C224.972 8.968 224.804 8.68 224.756 8.32L224.216 5.764C224.216 5.644 224.216 5.536 224.216 5.44C224.216 5.056 224.348 4.756 224.612 4.54C224.828 4.42 225.104 4.36 225.44 4.36H225.944C228.416 4.36 231.08 4.072 233.936 3.496C234.848 3.328 235.484 3.196 235.844 3.1C236.204 3.004 236.504 2.956 236.744 2.956C237.008 2.956 237.26 3.028 237.5 3.172L239.84 4.72C240.152 4.912 240.356 5.176 240.452 5.512C240.5 5.632 240.524 5.74 240.524 5.836C240.524 6.076 240.44 6.304 240.272 6.52C239.048 8.68 237.164 11.056 234.62 13.648L235.34 13.612C238.076 13.612 240.26 14.332 241.892 15.772C243.668 17.284 244.556 19.348 244.556 21.964C244.556 24.916 243.476 27.268 241.316 29.02C240.332 29.788 239.192 30.388 237.896 30.82ZM231.056 24.844C230.84 24.844 230.684 24.88 230.588 24.952C230.492 25.024 230.444 25.144 230.444 25.312C230.444 25.48 230.504 25.624 230.624 25.744C230.96 26.056 231.68 26.272 232.784 26.392C232.616 25.984 232.412 25.624 232.172 25.312C231.932 25 231.56 24.844 231.056 24.844Z" fill="#1B1B1B"/>
</svg>
