<svg width="84" height="88" viewBox="0 0 84 88" fill="none" xmlns="http://www.w3.org/2000/svg">
<g opacity="0.8" clip-path="url(#clip0_1_43)">
<path d="M80.54 87.7H2.69C1.21 87.7 0 86.5 0 85.01V2.69C0 1.2 1.2 0 2.69 0H80.54C82.02 0 83.23 1.2 83.23 2.69V85.01C83.23 86.49 82.03 87.7 80.54 87.7ZM5.37 82.32H77.86V5.37H5.37V82.32Z" fill="#4EDB4B"/>
<path d="M66.1101 22.58H17.1201C15.6401 22.58 14.4301 21.38 14.4301 19.89C14.4301 18.4 15.6301 17.2 17.1201 17.2H66.1101C67.5901 17.2 68.8001 18.4 68.8001 19.89C68.8001 21.38 67.6001 22.58 66.1101 22.58Z" fill="#4EDB4B"/>
<path d="M66.1101 38.55H17.1201C15.6401 38.55 14.4301 37.35 14.4301 35.86C14.4301 34.37 15.6301 33.17 17.1201 33.17H66.1101C67.5901 33.17 68.8001 34.37 68.8001 35.86C68.8001 37.35 67.6001 38.55 66.1101 38.55Z" fill="#4EDB4B"/>
<path d="M66.1101 54.52H17.1201C15.6401 54.52 14.4301 53.32 14.4301 51.83C14.4301 50.34 15.6301 49.14 17.1201 49.14H66.1101C67.5901 49.14 68.8001 50.34 68.8001 51.83C68.8001 53.32 67.6001 54.52 66.1101 54.52Z" fill="#4EDB4B"/>
<path d="M37.6201 70.49H17.1201C15.6401 70.49 14.4301 69.29 14.4301 67.8C14.4301 66.31 15.6301 65.11 17.1201 65.11H37.6301C39.1101 65.11 40.3201 66.31 40.3201 67.8C40.3201 69.29 39.1201 70.49 37.6301 70.49H37.6201Z" fill="#4EDB4B"/>
</g>
<defs>
<clipPath id="clip0_1_43">
<rect width="83.23" height="87.7" fill="white"/>
</clipPath>
</defs>
</svg>
