<svg width="93" height="95" viewBox="0 0 93 95" fill="none" xmlns="http://www.w3.org/2000/svg">
<g clip-path="url(#clip0_229_59)">
<path d="M22.5421 49.395C22.5421 45.3034 22.5665 41.216 22.5218 37.1244C22.5096 36.1371 22.8225 35.5195 23.6635 34.9669C29.1243 31.4036 34.5323 27.7631 40.0093 24.2323C40.6513 23.8178 41.6996 23.5984 42.4187 23.7975C51.2884 26.2516 60.1257 28.8154 68.9832 31.3061C70.0965 31.619 70.4418 32.2284 70.4378 33.3173C70.4093 41.6548 70.4459 49.9882 70.3728 58.3256C70.3687 59.0001 69.8649 59.9224 69.3042 60.3044C63.8231 64.0221 58.2973 67.6707 52.739 71.2666C52.1701 71.6322 51.2316 71.8029 50.5896 71.6201C41.728 69.1497 32.8908 66.5818 24.0333 64.0912C22.8509 63.758 22.5055 63.1363 22.5218 61.9783C22.5705 57.7852 22.5421 53.5921 22.5421 49.395ZM50.1995 69.0359C50.2605 68.6662 50.3336 68.4143 50.3377 68.1664C50.3458 60.8732 50.3174 53.5759 50.3742 46.2826C50.3824 45.1937 49.777 45.015 49.009 44.7996C43.7392 43.3085 38.4735 41.8132 33.2077 40.318C30.4895 39.546 27.7713 38.7741 24.9596 37.9736C24.8987 38.4043 24.8377 38.6481 24.8337 38.8919C24.8296 46.1851 24.854 53.4824 24.8012 60.7757C24.793 61.8686 25.3781 62.0271 26.1664 62.2506C33.6709 64.3796 41.1632 66.529 48.6637 68.6702C49.1472 68.8084 49.6429 68.9059 50.1995 69.04V69.0359ZM52.7186 68.524C57.6634 65.2491 62.2994 62.1449 66.9841 59.1179C67.8455 58.5613 68.1137 57.96 68.1096 56.9808C68.0731 50.1466 68.0893 43.3125 68.0852 36.4784C68.0852 36.0355 68.0243 35.5927 67.9918 35.162C67.7805 35.162 67.6586 35.1213 67.5895 35.166C62.8357 38.2905 58.0779 41.411 53.3484 44.5761C53.0315 44.7874 52.7512 45.3116 52.7471 45.6894C52.7105 53.1858 52.7227 60.6822 52.7227 68.524H52.7186ZM66.2609 33.1873C66.0537 33.0085 65.9927 32.9151 65.9115 32.8907C58.0697 30.6398 50.2239 28.3929 42.3781 26.1622C42.053 26.0688 41.5898 26.0078 41.3379 26.1663C39.412 27.3771 37.5227 28.6488 35.3164 30.0994C43.6701 32.4763 51.6094 34.7394 59.5487 36.9822C59.8615 37.0716 60.3085 37.0879 60.5604 36.9294C62.466 35.7227 64.335 34.4591 66.2609 33.1873ZM57.4318 39.0138C57.1677 38.8594 57.058 38.7619 56.928 38.7253C49.1391 36.4865 41.3461 34.2437 33.549 32.0293C33.1833 31.9237 32.6592 31.8993 32.3666 32.0862C30.4692 33.2808 28.6205 34.5444 26.6621 35.8486C26.9831 36.0315 27.1049 36.1371 27.2472 36.1777C34.9914 38.3962 42.7356 40.6146 50.488 42.8046C50.8903 42.9184 51.4632 42.9143 51.7963 42.7071C53.6735 41.541 55.4978 40.2937 57.4278 39.0178L57.4318 39.0138Z" fill="black"/>
<path d="M51.1788 71.8923C50.9512 71.8923 50.7318 71.8679 50.5368 71.811C45.6205 70.4377 40.6269 69.0156 35.8 67.6382C31.8629 66.5128 27.9257 65.3914 23.9805 64.2821C22.7697 63.9408 22.3065 63.2948 22.3227 61.9702C22.3593 58.8945 22.3512 55.7659 22.3471 52.7389C22.3471 51.6216 22.343 50.5042 22.343 49.3909C22.343 48.2573 22.343 47.1196 22.343 45.986C22.3471 43.0809 22.3512 40.0783 22.3187 37.1245C22.3065 36.0518 22.664 35.3773 23.5538 34.7963C25.8698 33.2848 28.1776 31.7571 30.4855 30.2335C33.5653 28.1979 36.7467 26.0932 39.8996 24.0576C40.6229 23.5903 41.728 23.3912 42.4716 23.5984C47.8023 25.0733 53.2103 26.6132 58.4395 28.1003C61.9703 29.108 65.5012 30.1116 69.036 31.107C70.1778 31.428 70.641 32.0659 70.6369 33.3133C70.6288 36.3362 70.6247 39.3632 70.6247 42.3862C70.6247 47.6113 70.6206 53.0111 70.5719 58.3216C70.5638 59.0651 70.0356 60.0443 69.418 60.4669C64.1888 64.014 58.7686 67.5976 52.8487 71.4291C52.3936 71.7216 51.7557 71.8882 51.1747 71.8882L51.1788 71.8923ZM41.8174 23.9235C41.2486 23.9235 40.5863 24.0982 40.1231 24.3989C36.9702 26.4304 33.7888 28.5351 30.713 30.5707C28.4052 32.0984 26.0973 33.6221 23.7773 35.1335C23.0013 35.6414 22.7168 36.1778 22.725 37.1163C22.7575 40.0702 22.7534 43.0769 22.7493 45.982C22.7493 47.1156 22.7493 48.2533 22.7493 49.3869C22.7493 50.5042 22.7493 51.6175 22.7534 52.7348C22.7615 55.7618 22.7656 58.8904 22.729 61.9702C22.7168 63.112 23.0581 63.5955 24.0942 63.8839C28.0354 64.9932 31.9766 66.1146 35.9137 67.2401C40.7407 68.6174 45.7302 70.0395 50.6506 71.4128C51.2275 71.5754 52.1011 71.4291 52.6374 71.0837C58.5573 67.2522 63.9775 63.6686 69.2026 60.1256C69.7105 59.7802 70.1737 58.9189 70.1818 58.3135C70.2306 53.003 70.2306 47.6032 70.2346 42.3821C70.2346 39.3592 70.2346 36.3322 70.2468 33.3092C70.2468 32.2406 69.9096 31.7693 68.9426 31.4971C65.4077 30.5016 61.8769 29.498 58.342 28.4904C53.1128 27.0033 47.7048 25.4634 42.3781 23.9885C42.2156 23.9438 42.0287 23.9235 41.8296 23.9235H41.8174ZM50.3661 69.2797L50.1549 69.231C49.9761 69.1863 49.8014 69.1497 49.6307 69.1091C49.2772 69.0278 48.9441 68.9547 48.6109 68.8572L41.1308 66.72C36.125 65.2898 31.1234 63.8596 26.1136 62.4375C25.3253 62.214 24.5899 62.0068 24.6021 60.7676C24.6427 55.5587 24.6387 50.2604 24.6346 45.1369C24.6346 43.0525 24.6346 40.9681 24.6346 38.8838C24.6346 38.7091 24.6631 38.5425 24.6996 38.3271C24.7199 38.2134 24.7403 38.0874 24.7606 37.9371L24.7931 37.7055L36.4541 41.0169C40.6594 42.2114 44.8607 43.406 49.066 44.5924C49.8136 44.8037 50.5856 45.0231 50.5774 46.2745C50.5368 51.4631 50.5409 56.737 50.5449 61.8402C50.5449 63.9449 50.5449 66.0496 50.5449 68.1583C50.5449 68.3412 50.5084 68.5159 50.4677 68.7231C50.4474 68.8247 50.4271 68.9344 50.4027 69.0603L50.3661 69.2757V69.2797ZM25.1263 38.2296C25.1181 38.2906 25.1059 38.3474 25.0978 38.4003C25.0653 38.6034 25.0409 38.7497 25.0369 38.8878C25.0369 40.9722 25.0369 43.0566 25.0369 45.1409C25.0369 50.2645 25.0409 55.5627 25.0044 60.7716C24.9962 61.7021 25.4269 61.824 26.2111 62.0474C31.2331 63.4695 36.2347 64.9038 41.2405 66.334L48.7206 68.4712C49.0416 68.5646 49.3707 68.6378 49.7201 68.715C49.8258 68.7393 49.9314 68.7637 50.037 68.7881C50.0452 68.7393 50.0574 68.6946 50.0655 68.65C50.1021 68.459 50.1346 68.3087 50.1346 68.1664C50.1346 66.0618 50.1346 63.9571 50.1346 61.8483C50.1346 56.7451 50.1305 51.4712 50.1671 46.2786C50.1752 45.336 49.712 45.2059 48.9522 44.9906C44.7469 43.8001 40.5416 42.6056 36.3404 41.4151L25.1263 38.2296ZM52.5155 68.8978V64.6031C52.5155 58.0819 52.5155 51.9263 52.5399 45.6854C52.5399 45.2384 52.8568 44.6534 53.2306 44.4014C57.6309 41.4598 62.1288 38.5059 66.4763 35.6455L67.4717 34.9913C67.5733 34.9263 67.683 34.9345 67.8009 34.9426C67.8496 34.9466 67.9106 34.9507 67.9837 34.9507H68.1706L68.1869 35.1376C68.195 35.2717 68.2112 35.4098 68.2234 35.5439C68.2519 35.8446 68.2803 36.1534 68.2844 36.4662C68.2844 38.5912 68.2844 40.7122 68.2844 42.8372C68.2844 47.4691 68.2844 52.2595 68.3087 56.9686C68.3128 58.0615 67.9715 58.7076 67.0898 59.2805C63.6281 61.5192 60.2313 63.7742 56.6355 66.1633C55.3841 66.9963 54.1164 67.8373 52.8284 68.6865L52.5115 68.8937L52.5155 68.8978ZM67.683 35.3448H67.6708L66.7038 35.9868C62.3563 38.8431 57.8585 41.797 53.4582 44.7387C53.1981 44.9134 52.9503 45.3725 52.9503 45.6854C52.9218 51.9263 52.9218 58.0819 52.9218 64.6031V68.1421C54.1001 67.362 55.2622 66.59 56.412 65.8261C60.0079 63.437 63.4046 61.182 66.8704 58.9432C67.6383 58.4475 67.9106 57.9315 67.9024 56.9767C67.8781 52.2676 67.8781 47.4772 67.8781 42.8453C67.8781 40.7203 67.8781 38.5994 67.8781 36.4744C67.8781 36.1818 67.8496 35.8811 67.8212 35.5886C67.813 35.5114 67.8049 35.4301 67.8009 35.3529C67.7927 35.3529 67.7846 35.3529 67.7724 35.3529C67.7399 35.3529 67.7033 35.3489 67.683 35.3489V35.3448ZM51.0569 43.0728C50.8334 43.0728 50.614 43.0403 50.4352 42.9916C42.9023 40.8666 35.2555 38.6766 27.8607 36.5556L27.1944 36.3647C27.0765 36.3322 26.979 36.2712 26.8449 36.1859C26.7718 36.1412 26.6824 36.0843 26.5646 36.0152L26.2802 35.8527L26.5524 35.6699C27.04 35.3489 27.5194 35.0279 27.9907 34.7069C29.4534 33.7277 30.8349 32.8054 32.261 31.9034C32.6105 31.684 33.1874 31.7043 33.6059 31.8262C41.4599 34.0568 49.3504 36.3281 56.9849 38.5222C57.0946 38.5547 57.1881 38.6156 57.3059 38.6887C57.3668 38.7294 57.44 38.7781 57.5334 38.831L57.8138 38.9975L57.5416 39.1763C57.0459 39.5054 56.5542 39.8305 56.0707 40.1555C54.6446 41.1022 53.2997 42.0002 51.9061 42.8697C51.6704 43.0159 51.3575 43.0728 51.0569 43.0728ZM27.044 35.8324L27.0603 35.8405C27.174 35.9137 27.2472 35.9543 27.3081 35.9746L27.9745 36.1656C35.3693 38.2824 43.0201 40.4765 50.549 42.6015C50.8903 42.699 51.4104 42.7031 51.6948 42.5243C53.0844 41.6589 54.4292 40.765 55.8513 39.8183C56.2495 39.5501 56.6558 39.282 57.0621 39.0138C56.9809 38.961 56.928 38.9285 56.8793 38.9163C49.2488 36.7222 41.3542 34.4509 33.5003 32.2203C33.1752 32.1269 32.708 32.1065 32.4804 32.2528C31.0584 33.1508 29.681 34.0731 28.2223 35.0482C27.8323 35.3083 27.4422 35.5683 27.0481 35.8324H27.044ZM60.0322 37.2504C59.8453 37.2504 59.6544 37.222 59.4918 37.1773C52.6821 35.2554 45.8764 33.3173 38.8067 31.3061L34.833 30.1766L36.7507 28.9089C38.2988 27.885 39.7656 26.918 41.2242 25.9957C41.5939 25.7641 42.1872 25.8981 42.4269 25.9672C50.4759 28.2547 58.4679 30.5463 65.9603 32.6957C66.0578 32.7241 66.1228 32.7851 66.2122 32.8704C66.2569 32.911 66.3138 32.9679 66.3869 33.0329L66.5901 33.2076L64.9892 34.2681C63.5102 35.2514 62.1125 36.1778 60.662 37.1001C60.4914 37.2098 60.2598 37.2504 60.0282 37.2504H60.0322ZM35.7959 30.0262L38.9204 30.9161C45.9902 32.9273 52.7959 34.8654 59.6015 36.7872C59.8697 36.8644 60.2598 36.8766 60.4507 36.7588C61.8972 35.8405 63.2908 34.9141 64.7698 33.9349L65.9318 33.1629C65.8993 33.1304 65.8587 33.0939 65.8465 33.0857C58.3623 30.9404 50.3702 28.6489 42.3212 26.3613C41.9474 26.2557 41.598 26.2476 41.4436 26.3451C39.985 27.2633 38.5223 28.2304 36.9742 29.2502L35.7919 30.0303L35.7959 30.0262Z" fill="black"/>
<path d="M51.1828 72.197C50.9269 72.197 50.679 72.1685 50.4555 72.1035C45.5351 70.7302 40.5457 69.3081 35.7147 67.9307C31.7775 66.8093 27.8404 65.6838 23.8992 64.5746C22.5625 64.2008 21.9977 63.4207 22.018 61.9661C22.0546 58.8944 22.0464 55.7658 22.0424 52.7429C22.0424 51.6256 22.0383 50.5082 22.0383 49.3909C22.0383 48.2573 22.0383 47.1196 22.0383 45.9819C22.0424 43.0768 22.0464 40.0742 22.0139 37.1244C22.0017 35.9461 22.4121 35.1741 23.3873 34.5362C25.7032 33.0247 28.0111 31.5011 30.3189 29.9734C33.3987 27.9378 36.5801 25.8331 39.7371 23.7975C40.5416 23.2815 41.728 23.0702 42.5569 23.3018C47.8877 24.7767 53.2956 26.3166 58.5248 27.8077C62.0557 28.8113 65.5865 29.819 69.1214 30.8144C70.4053 31.176 70.9498 31.9236 70.9457 33.3132C70.9376 36.3362 70.9335 39.3591 70.9335 42.3861C70.9335 47.6112 70.9294 53.0111 70.8807 58.3256C70.8726 59.1667 70.2956 60.2434 69.5927 60.7188C64.3635 64.2658 58.9393 67.8535 53.0153 71.685C52.5115 72.0101 51.8167 72.1929 51.1788 72.1929L51.1828 72.197ZM41.8174 24.2282C41.3095 24.2282 40.7001 24.3907 40.2897 24.6548C37.1408 26.6863 33.9594 28.791 30.8796 30.8226C28.5718 32.3503 26.2599 33.8739 23.9439 35.3895C23.2613 35.8364 23.0216 36.2874 23.0297 37.1163C23.0622 40.0742 23.0581 43.0809 23.0541 45.986C23.0541 47.1196 23.0541 48.2573 23.0541 49.3909C23.0541 50.5082 23.0541 51.6215 23.0581 52.7388C23.0663 55.7658 23.0703 58.8985 23.0338 61.9783C23.0216 62.9819 23.2776 63.3435 24.1755 63.5954C28.1208 64.7046 32.0579 65.8261 35.995 66.9515C40.822 68.3289 45.8114 69.751 50.7278 71.1243C51.2153 71.2584 52.0117 71.1243 52.4668 70.8318C58.3867 67.0043 63.8028 63.4207 69.0239 59.8777C69.4464 59.5933 69.8649 58.8172 69.869 58.3175C69.9177 53.007 69.9177 47.6072 69.9218 42.3861C69.9218 39.3632 69.9218 36.3362 69.934 33.3132C69.934 32.3828 69.6821 32.0293 68.8491 31.7936C65.3143 30.7982 61.7834 29.7946 58.2485 28.7869C53.0194 27.2999 47.6154 25.7599 42.2887 24.285C42.1506 24.2485 41.9921 24.2282 41.8215 24.2282H41.8174ZM50.6099 69.6535L50.0777 69.5275C49.8989 69.4869 49.7283 69.4463 49.5576 69.4097C49.2 69.3284 48.8628 69.2512 48.5215 69.1537L41.0414 67.0165C36.0356 65.5863 31.034 64.1561 26.0242 62.734C25.1994 62.4984 24.2771 62.2383 24.2893 60.7675C24.3299 55.5586 24.3258 50.2644 24.3218 45.1409C24.3218 43.0565 24.3218 40.9721 24.3218 38.8878C24.3218 38.6887 24.3543 38.4977 24.3908 38.2824C24.4071 38.1727 24.4315 38.0467 24.4518 37.9005L24.533 37.3235L36.5313 40.7324C40.7366 41.927 44.9379 43.1215 49.1432 44.3079C49.9192 44.5273 50.8862 44.8036 50.8781 46.2867C50.8375 51.4712 50.8415 56.7491 50.8456 61.8483C50.8456 63.953 50.8456 66.0617 50.8456 68.1664C50.8456 68.3777 50.805 68.5768 50.7643 68.788C50.744 68.8856 50.7237 68.9953 50.7034 69.1172L50.614 69.6575L50.6099 69.6535ZM25.37 38.6156C25.3538 38.7212 25.3416 38.8106 25.3416 38.8878C25.3416 40.9721 25.3416 43.0565 25.3416 45.1409C25.3416 50.2644 25.3457 55.5627 25.3091 60.7756C25.305 61.4745 25.5123 61.5354 26.2924 61.7548C31.3143 63.1769 36.316 64.6112 41.3217 66.0414L48.8019 68.1786C49.1147 68.268 49.4398 68.3411 49.7851 68.4183C49.7851 68.4183 49.7933 68.4183 49.7973 68.4183C49.8136 68.3208 49.8258 68.2355 49.8258 68.1623C49.8258 66.0576 49.8258 63.953 49.8258 61.8483C49.8258 56.7451 49.8217 51.4671 49.8583 46.2785C49.8623 45.5959 49.6551 45.5106 48.8628 45.2871C44.6575 44.0967 40.4522 42.9021 36.251 41.7076L25.366 38.6156H25.37ZM52.2108 69.4666V64.6031C52.2108 58.0818 52.2108 51.9222 52.2352 45.6813C52.2352 45.1368 52.609 44.4501 53.06 44.1454C57.4603 41.2037 61.9581 38.2458 66.3097 35.3895L67.3052 34.7353C67.4921 34.6094 67.6871 34.6256 67.8293 34.6378C67.874 34.6378 67.9268 34.6459 67.9878 34.6459H68.4591L68.4956 35.1172C68.5078 35.2513 68.52 35.3813 68.5322 35.5195C68.5607 35.8283 68.5932 36.1452 68.5932 36.4702C68.5932 38.5952 68.5932 40.7162 68.5932 42.8412C68.5932 47.4731 68.5932 52.2594 68.6175 56.9685C68.6257 58.1631 68.2315 58.9107 67.2605 59.5364C63.7987 61.7752 60.402 64.0302 56.8102 66.4152C55.5588 67.2481 54.2911 68.0892 53.0031 68.9384L52.2149 69.4584L52.2108 69.4666ZM67.5368 35.8039L66.8704 36.2427C62.5229 39.0991 58.0251 42.0529 53.6288 44.9946C53.45 45.1124 53.255 45.4781 53.255 45.6894C53.2266 51.9262 53.2266 58.0859 53.2266 64.6031V67.5732C54.2423 66.8987 55.25 66.2324 56.2454 65.5701C59.8413 63.181 63.2421 60.926 66.7079 58.6831C67.3905 58.2443 67.6058 57.8258 67.6018 56.9726C67.5774 52.2594 67.5774 47.469 67.5774 42.8371C67.5774 40.7162 67.5774 38.5912 67.5774 36.4702C67.5774 36.2508 67.5611 36.0314 67.5408 35.7998L67.5368 35.8039ZM51.0569 43.3816C50.805 43.3816 50.5612 43.345 50.354 43.2881C42.821 41.1631 35.1743 38.9731 27.7795 36.8522L27.1131 36.6612C26.9546 36.6165 26.8368 36.5434 26.6865 36.4459C26.6174 36.4012 26.528 36.3484 26.4183 36.2833L25.7032 35.877L26.3899 35.422C26.8734 35.101 27.3528 34.78 27.8282 34.459C29.2909 33.4798 30.6724 32.5534 32.1026 31.6514C32.5617 31.3629 33.2484 31.4117 33.6953 31.5377C41.5493 33.7683 49.4438 36.0396 57.0743 38.2336C57.2287 38.2783 57.3425 38.3515 57.4766 38.4368C57.5375 38.4733 57.6066 38.5221 57.696 38.5709L58.3989 38.9812L57.7203 39.4322C57.2246 39.7613 56.733 40.0864 56.2495 40.4114C54.8234 41.3622 53.4744 42.2601 52.0767 43.1296C51.7882 43.3084 51.4226 43.3816 51.065 43.3816H51.0569ZM27.6901 35.7714L28.0557 35.877C35.4506 37.9939 43.0973 40.1839 50.6303 42.3089C50.9431 42.3983 51.3535 42.378 51.5323 42.2683C52.9178 41.4069 54.2586 40.513 55.6807 39.5663C55.9163 39.4079 56.152 39.2535 56.3917 39.095C48.8872 36.9375 41.1348 34.7069 33.415 32.5169C33.098 32.4275 32.7567 32.4437 32.643 32.5169C31.225 33.4107 29.8476 34.3331 28.3889 35.3082C28.1573 35.4626 27.9257 35.617 27.6901 35.7755V35.7714ZM60.0322 37.5551C59.8047 37.5551 59.5853 37.5185 59.4106 37.4698C52.6009 35.5479 45.7952 33.6098 38.7254 31.5986L34.1097 30.2862L36.5842 28.6529C38.1363 27.629 39.599 26.6579 41.0657 25.7356C41.5208 25.4512 42.1668 25.573 42.5163 25.6706C50.5652 27.9581 58.5573 30.2497 66.0497 32.399C66.2203 32.4478 66.326 32.5494 66.4275 32.6469C66.4682 32.6875 66.521 32.7363 66.5901 32.7972L67.0979 33.236L65.1599 34.52C63.6809 35.5032 62.2791 36.4337 60.8286 37.3519C60.6011 37.4982 60.3085 37.551 60.0322 37.551V37.5551ZM36.5151 29.9124L39.0017 30.6194C46.0715 32.6306 52.8771 34.5687 59.6828 36.4906C59.9388 36.5637 60.211 36.5434 60.2841 36.4946C61.7265 35.5804 63.1202 34.654 64.5992 33.6708L65.2655 33.2279C57.9154 31.1192 50.1021 28.8804 42.2359 26.6457C41.9027 26.5523 41.659 26.5644 41.6021 26.5929C40.1475 27.5071 38.6888 28.4741 37.1408 29.4939L36.5151 29.9084V29.9124Z" fill="black"/>
<path d="M51.1828 72.4001C50.8983 72.4001 50.6383 72.3676 50.4026 72.3026C45.5066 70.9374 40.5375 69.5194 35.7308 68.1502L35.5805 68.1055C31.6718 66.9881 27.7591 65.8748 23.8463 64.7737C22.4242 64.3755 21.7985 63.5101 21.8148 61.9661C21.8513 58.9066 21.8432 55.7943 21.8391 52.7795C21.8391 51.6256 21.8351 50.5082 21.8351 49.3909C21.8351 48.4157 21.8351 47.4447 21.8351 46.4695V45.9251C21.8391 43.0403 21.8432 40.058 21.8148 37.1285C21.8026 35.8892 22.2536 35.0401 23.2815 34.3697C25.5975 32.8582 27.9053 31.3345 30.2132 29.8068L30.2457 29.7824C33.3133 27.7549 36.4866 25.6584 39.6314 23.6269C40.4806 23.0824 41.732 22.8589 42.6137 23.1068C47.9485 24.5817 53.3565 26.1216 58.5857 27.6127C62.1165 28.6163 65.6473 29.624 69.1822 30.6194C70.5515 31.0054 71.161 31.8343 71.1528 33.3173C71.1447 36.3402 71.1406 39.3632 71.1406 42.3861C71.1406 47.5909 71.1366 52.9745 71.0878 58.3256C71.0797 59.2439 70.4743 60.3653 69.7104 60.8854C64.4772 64.4324 59.053 68.0242 53.129 71.8557C52.6048 72.197 51.8775 72.3961 51.1828 72.3961V72.4001ZM41.8092 23.4156C41.1469 23.4156 40.4034 23.6187 39.8508 23.9722C36.706 25.9997 33.5368 28.0962 30.4691 30.1237L30.4366 30.1481C28.1288 31.6718 25.821 33.1995 23.505 34.711C22.5827 35.3123 22.2129 36.0111 22.2211 37.1244C22.2536 40.058 22.2495 43.0403 22.2454 45.9251V46.4695C22.2454 47.4447 22.2454 48.4157 22.2454 49.3909C22.2454 50.5082 22.2454 51.6256 22.2495 52.7389C22.2576 55.7902 22.2617 58.9026 22.2251 61.9661C22.2089 63.3273 22.7127 64.0261 23.9601 64.3756C27.8728 65.4766 31.7856 66.5899 35.6943 67.7073L35.8446 67.752C40.6512 69.1212 45.6163 70.5393 50.5123 71.9045C50.7114 71.9613 50.939 71.9898 51.1868 71.9898C51.8044 71.9898 52.4504 71.811 52.9096 71.5144C58.8335 67.6829 64.2537 64.0952 69.4829 60.5481C70.1249 60.1134 70.6775 59.0935 70.6815 58.3215C70.7303 52.9705 70.7303 47.5869 70.7343 42.3821C70.7343 39.3591 70.7343 36.3321 70.7465 33.3092C70.7465 32.009 70.263 31.3427 69.0685 31.0054C65.5336 30.01 62.0028 29.0064 58.4719 27.9987C53.2427 26.5116 47.8388 24.9717 42.504 23.4968C42.2927 23.4399 42.0571 23.4115 41.8092 23.4115V23.4156ZM51.1746 71.3844C50.9959 71.3844 50.8252 71.3641 50.6749 71.3234C45.7707 69.9542 40.7894 68.5361 35.9706 67.1588L35.7227 67.0897C31.8546 65.9845 27.9907 64.8834 24.1185 63.7945C23.1312 63.5142 22.8143 63.0754 22.8305 61.9783C22.8671 58.9107 22.859 55.7943 22.8549 52.7795C22.8549 51.6256 22.8508 50.5082 22.8508 49.3949C22.8508 48.4239 22.8508 47.4487 22.8508 46.4777V45.9332C22.8549 43.0443 22.859 40.058 22.8305 37.1244C22.8224 36.2265 23.0946 35.7105 23.8341 35.227C26.146 33.7196 28.4457 32.2 30.7495 30.6763L30.8511 30.6072C33.9024 28.5919 37.0554 26.5035 40.1799 24.4882C40.7609 24.1144 41.7442 23.9275 42.3415 24.09C47.6601 25.5609 53.0599 27.1008 58.281 28.5879C61.8362 29.5996 65.367 30.6072 68.9019 31.5986C69.8242 31.8587 70.1371 32.2934 70.133 33.3132C70.1249 36.3362 70.1208 39.3632 70.1208 42.3861C70.1208 47.5909 70.1167 52.9705 70.068 58.3175C70.0639 58.8823 69.6089 59.7233 69.1375 60.0443C63.9124 63.5873 58.4963 67.171 52.5764 71.0024C52.2067 71.2422 51.6541 71.3803 51.1706 71.3803L51.1746 71.3844ZM41.8214 24.4354C41.3379 24.4354 40.7691 24.5939 40.4034 24.8295C37.2789 26.8448 34.1259 28.9292 31.0786 30.9445L30.9973 30.9973C28.6733 32.5331 26.3695 34.0568 24.0616 35.5642C23.44 35.9705 23.2328 36.3606 23.2409 37.1163C23.2734 40.0539 23.2693 43.0443 23.2653 45.9332V46.4777C23.2653 47.4487 23.2653 48.4239 23.2653 49.3949C23.2653 50.5123 23.2653 51.6256 23.2693 52.7429C23.2775 55.7984 23.2815 58.9148 23.245 61.9865C23.2328 62.9006 23.4278 63.181 24.2364 63.4085C28.1085 64.4974 31.9765 65.5985 35.8446 66.7037L36.0599 66.7646C40.9072 68.1461 45.8886 69.5682 50.7927 70.9374C51.2234 71.0593 51.9588 70.9334 52.3651 70.6693C58.281 66.8418 63.6971 63.2582 68.9181 59.7152C69.2797 59.4673 69.6698 58.7522 69.6739 58.3175C69.7226 52.9705 69.7226 47.5909 69.7267 42.3902C69.7267 39.3672 69.7267 36.3402 69.7389 33.3173C69.7389 32.4763 69.5479 32.204 68.8044 31.9927C65.2695 30.9973 61.7346 29.9937 58.2038 28.9861C52.9583 27.4949 47.5625 25.955 42.244 24.4842C42.1261 24.4517 41.988 24.4354 41.8295 24.4354H41.8214ZM50.7805 69.9054L50.037 69.7266C49.8663 69.686 49.7038 69.6494 49.5413 69.6129C49.1553 69.5275 48.818 69.4503 48.4727 69.3488L40.7244 67.1344C35.808 65.7286 30.8917 64.3227 25.9754 62.9291C25.1302 62.6894 24.082 62.3928 24.0942 60.7635C24.1348 55.5465 24.1307 50.2563 24.1267 45.1409V44.3608C24.1267 42.5365 24.1267 40.7121 24.1267 38.8878C24.1267 38.6684 24.1632 38.4652 24.1998 38.2499C24.2201 38.1199 24.2404 38.0061 24.2607 37.8761L24.3745 37.0675L36.8848 40.6227C40.9925 41.7889 45.1003 42.955 49.2081 44.117C50.0085 44.3445 51.1015 44.6533 51.0893 46.2907C51.0487 51.4874 51.0527 56.7573 51.0568 61.8524V62.5553C51.0568 64.4284 51.0568 66.2974 51.0568 68.1705C51.0568 68.4021 51.0162 68.6134 50.9715 68.8328C50.9512 68.9303 50.9308 69.0359 50.9105 69.1537L50.7886 69.9095L50.7805 69.9054ZM24.7077 37.5836L24.6589 37.9289C24.6386 38.0671 24.6183 38.1849 24.602 38.2865C24.5614 38.5221 24.533 38.705 24.533 38.8878C24.533 40.7121 24.533 42.5365 24.533 44.3608V45.1409C24.533 50.2563 24.537 55.5465 24.5005 60.7675C24.4923 62.084 25.2643 62.3034 26.0891 62.539C31.0095 63.9327 35.9259 65.3385 40.8381 66.7443L48.5864 68.9587C48.9196 69.0522 49.2528 69.1294 49.6063 69.2106C49.7932 69.2513 49.9598 69.2919 50.1304 69.3325L50.4514 69.4097L50.5042 69.0847C50.5245 68.9587 50.5448 68.849 50.5652 68.7515C50.6058 68.5524 50.6424 68.3614 50.6424 68.1705C50.6424 66.2974 50.6424 64.4284 50.6424 62.5553V61.8524C50.6424 56.7573 50.6383 51.4874 50.6749 46.2907C50.6871 44.9621 49.8744 44.7346 49.0903 44.5111C44.9825 43.3491 40.8747 42.183 36.7669 41.0169L24.7077 37.5917V37.5836ZM52.0076 69.8445V64.5624C52.0076 58.0574 52.0076 51.91 52.0319 45.6854C52.0319 45.0718 52.4382 44.3242 52.9461 43.9829C57.3668 41.025 61.8565 38.0792 66.1959 35.227L67.1913 34.5728C67.4392 34.4103 67.6911 34.4306 67.8414 34.4428C67.8861 34.4428 67.9308 34.4509 67.9836 34.4509H68.6418L68.6906 35.1091C68.6987 35.2392 68.715 35.3732 68.7272 35.5033C68.7556 35.8202 68.7881 36.1412 68.7881 36.4743C68.7881 38.5993 68.7881 40.7203 68.7881 42.8453V43.0443C68.7881 47.6113 68.7881 52.3326 68.8125 56.9726C68.8206 58.2322 68.3859 59.0488 67.362 59.7111C63.9124 61.9418 60.5238 64.1886 56.9401 66.5696C55.6603 67.4188 54.3926 68.2599 53.1046 69.1131L51.9994 69.8445H52.0076ZM67.687 34.8369C67.5976 34.8369 67.5042 34.8491 67.4188 34.906L66.4234 35.5601C62.084 38.4124 57.5984 41.3582 53.1737 44.3161C52.7755 44.5802 52.4423 45.2059 52.4382 45.6813C52.4098 51.91 52.4098 58.0534 52.4098 64.5584V69.0847L52.8811 68.7718C54.1691 67.9186 55.4368 67.0775 56.6882 66.2486C60.3044 63.8474 63.6889 61.6005 67.1426 59.3658C68.0608 58.7726 68.4143 58.1021 68.4062 56.9685C68.3818 52.3244 68.3818 47.6031 68.3818 43.0362V42.8371C68.3818 40.7121 68.3818 38.5912 68.3818 36.4662C68.3818 36.1493 68.3534 35.8405 68.3249 35.5398C68.3127 35.3976 68.2965 35.2635 68.2884 35.1294L68.268 34.8491H67.9836C67.9186 34.8491 67.8658 34.845 67.817 34.841C67.7723 34.841 67.7276 34.8328 67.683 34.8328L67.687 34.8369ZM49.9638 68.6702L49.7525 68.6174C49.395 68.5362 49.0699 68.463 48.753 68.3736L41.0088 66.1633C36.0925 64.7575 31.1721 63.3517 26.2395 61.9539C25.4594 61.7305 25.1018 61.633 25.1099 60.7797C25.1506 55.5586 25.1465 50.2644 25.1424 45.145V44.3648C25.1424 42.5405 25.1424 40.7162 25.1424 38.8959C25.1424 38.8106 25.1546 38.709 25.1709 38.5912L25.2074 38.3637L36.3159 41.5207C40.5212 42.7152 44.7224 43.9098 48.9277 45.1003C49.7444 45.3319 50.0776 45.4578 50.0695 46.2907C50.0288 51.4915 50.0329 56.7613 50.037 61.8605V62.5634C50.037 64.4365 50.037 66.3055 50.037 68.1786C50.037 68.2639 50.0248 68.3574 50.0045 68.4711L49.9679 68.6865L49.9638 68.6702ZM25.5487 38.8797V38.8919C25.5487 40.7162 25.5487 42.5365 25.5487 44.3608V45.1409C25.5487 50.2604 25.5528 55.5505 25.5162 60.7757C25.5162 61.3201 25.5772 61.3364 26.3532 61.5558C31.2858 62.9535 36.2062 64.3593 41.1226 65.7651L48.8668 67.9754C49.1106 68.0445 49.3666 68.1055 49.6307 68.1664V68.1583C49.6307 66.2852 49.6307 64.4162 49.6307 62.5431V61.8402C49.6307 56.741 49.6266 51.4712 49.6632 46.2664C49.6632 45.73 49.5819 45.6894 48.818 45.47C44.6127 44.2795 40.4074 43.085 36.2062 41.8904L25.5528 38.8634L25.5487 38.8797ZM53.0233 67.9551V64.5624C53.0233 58.0574 53.0233 51.9141 53.0477 45.6894C53.0477 45.4091 53.2793 44.9824 53.5109 44.828C57.9072 41.8904 62.4009 38.9366 66.7484 36.0802L67.7033 35.4504L67.7358 35.7877C67.7602 36.0436 67.7764 36.2549 67.7764 36.4743C67.7764 38.5953 67.7764 40.7203 67.7764 42.8412V43.0403C67.7764 47.6072 67.7764 52.3326 67.8008 56.9767C67.8048 57.9031 67.557 58.3784 66.8135 58.8579C63.3476 61.1007 59.9509 63.3557 56.3551 65.7448L53.0233 67.9551ZM67.362 36.1655L66.98 36.4174C62.6285 39.2779 58.1347 42.2277 53.7384 45.1693C53.6165 45.2506 53.454 45.5513 53.454 45.6935C53.4256 51.9181 53.4256 58.0615 53.4256 64.5665V67.2035L56.1275 65.4116C59.7234 63.0225 63.1242 60.7675 66.59 58.5247C67.2157 58.1184 67.3945 57.773 67.3904 56.9848C67.366 52.3407 67.366 47.6153 67.366 43.0484V42.8493C67.366 40.7284 67.366 38.6034 67.366 36.4825C67.366 36.3809 67.366 36.2793 67.3538 36.1696L67.362 36.1655ZM51.0568 43.5847C50.7968 43.5847 50.5327 43.5482 50.297 43.4832C42.6787 41.3338 34.7313 39.0585 27.7184 37.0472L27.0521 36.8563C26.8652 36.8034 26.7311 36.7181 26.5726 36.6206C26.5036 36.5759 26.4182 36.5231 26.3085 36.4621L25.309 35.8892L27.7062 34.2925C29.1771 33.3092 30.5545 32.3869 31.9887 31.4808C32.5007 31.1558 33.232 31.1964 33.744 31.3427C41.5492 33.5611 49.395 35.8161 56.9767 37.998L57.123 38.0386C57.3058 38.0914 57.4399 38.1768 57.5781 38.2662C57.6431 38.3068 57.7081 38.3474 57.7893 38.3962L58.7767 38.9731L57.8259 39.6029C57.3302 39.932 56.8386 40.2571 56.3551 40.5781C54.9249 41.5288 53.58 42.4268 52.1742 43.3003C51.8003 43.5319 51.3575 43.5807 51.0527 43.5807L51.0568 43.5847ZM26.0851 35.8649L26.5117 36.1087C26.6255 36.1737 26.7148 36.2305 26.788 36.2752C26.9302 36.3646 27.0318 36.4296 27.1658 36.4662L27.8322 36.6572C34.8451 38.6643 42.7925 40.9437 50.4067 43.0931C50.6058 43.15 50.8333 43.1784 51.0527 43.1784C51.4103 43.1784 51.7313 43.1012 51.9588 42.959C53.3565 42.0895 54.7014 41.1956 56.1275 40.2449C56.6151 39.9198 57.1027 39.5948 57.5984 39.2657L58.0047 38.9975L57.5821 38.7497C57.4927 38.6968 57.4237 38.6521 57.3627 38.6156C57.2327 38.5303 57.1311 38.4652 57.0092 38.4327L56.863 38.3921C49.2772 36.2102 41.4354 33.9552 33.6302 31.7368C33.1873 31.6108 32.5779 31.5905 32.2041 31.8262C30.7779 32.7241 29.4005 33.6464 27.9378 34.6256L26.081 35.8649H26.0851ZM51.0568 42.569C50.8862 42.569 50.7155 42.5446 50.5733 42.504C43.0078 40.3668 35.3773 38.1849 27.9988 36.068L27.2105 35.8446L28.271 35.1335C29.7418 34.1502 31.1111 33.232 32.5291 32.3381C32.7282 32.2122 33.1589 32.2325 33.4636 32.3178C41.2363 34.5281 48.9643 36.7466 56.4404 38.8959L56.863 39.0178L55.7862 39.7329C54.3682 40.6796 53.0274 41.5694 51.6338 42.4389C51.4916 42.5283 51.2721 42.5649 51.0527 42.5649L51.0568 42.569ZM28.1654 35.6983C35.5277 37.807 43.1338 39.9848 50.683 42.118C50.9552 42.1952 51.3046 42.1708 51.4225 42.0976C52.8121 41.2322 54.1488 40.3424 55.5628 39.3998L55.9081 39.1722C48.5661 37.0594 40.9844 34.8816 33.3539 32.716C33.0573 32.6306 32.7932 32.6632 32.7445 32.6916C31.3346 33.5814 29.9653 34.4956 28.5148 35.4667L28.1654 35.7023V35.6983ZM60.0322 37.7623C59.8046 37.7623 59.5649 37.7298 59.3536 37.6689C52.5886 35.7592 45.8276 33.8333 38.8107 31.8383L33.6302 30.3635L36.4744 28.4863C38.0265 27.4624 39.4933 26.4913 40.96 25.569C41.4801 25.2399 42.1952 25.374 42.5731 25.4796C50.5733 27.7509 58.5857 30.0506 66.1065 32.2081C66.3259 32.2731 66.46 32.4031 66.5697 32.5047C66.6144 32.5453 66.6591 32.5941 66.7241 32.6469L67.4351 33.2604L65.2735 34.6947C63.7946 35.6739 62.4009 36.6044 60.9382 37.5307C60.6985 37.6811 60.3856 37.7623 60.0322 37.7623ZM34.5891 30.2131L38.9204 31.4442C45.9373 33.4433 52.6983 35.3651 59.4633 37.2748C59.6421 37.3235 59.8412 37.352 60.0322 37.352C60.2231 37.352 60.5035 37.3235 60.7229 37.1854C62.1815 36.259 63.5752 35.3326 65.0501 34.3534L66.7647 33.2157L66.46 32.9516C66.3909 32.8907 66.3381 32.8419 66.2934 32.8013C66.1959 32.7079 66.1187 32.6307 65.9927 32.5941C58.4719 30.4366 50.4595 28.1409 42.4593 25.8656C42.2074 25.7925 41.5776 25.6543 41.1754 25.9062C39.7127 26.8286 38.2459 27.7956 36.6979 28.8195L34.5932 30.2091L34.5891 30.2131ZM60.0322 36.7466C59.9021 36.7466 59.7599 36.7303 59.6259 36.6897C52.8161 34.7678 46.0104 32.8297 38.9447 30.8185L36.0356 29.9896L37.031 29.3314C38.5791 28.3075 40.0377 27.3446 41.4923 26.4263C41.6467 26.3491 41.9677 26.3654 42.2887 26.4548C50.2767 28.726 58.3663 31.042 65.3182 33.037L65.7408 33.1589L64.7088 33.8455C63.2379 34.8247 61.8443 35.747 60.3897 36.6694C60.3125 36.7181 60.1784 36.7425 60.0281 36.7425L60.0322 36.7466ZM36.9945 29.8434L39.0544 30.4285C46.1242 32.4397 52.9258 34.3778 59.7356 36.2996C59.9428 36.3565 60.1419 36.3402 60.1825 36.324C61.6208 35.4098 63.0104 34.4875 64.4812 33.5123L64.7819 33.3132C57.9234 31.3467 50.0004 29.0754 42.1749 26.8529C41.8864 26.7717 41.7036 26.7879 41.6711 26.792C40.2531 27.6899 38.7944 28.6529 37.2504 29.6768L36.9945 29.8474V29.8434Z" fill="black"/>
<path d="M67.3702 6.58623C68.6216 4.90411 69.8324 3.28294 71.2342 1.40173C73.4364 6.39527 75.537 11.1694 77.7961 16.2889C72.2662 15.6794 67.1142 15.1147 61.625 14.5133C62.9577 12.6605 64.1197 11.0475 65.3874 9.28412C59.8819 6.48872 54.2098 5.10727 48.2818 4.85942C25.882 3.93304 6.69203 20.3885 3.96976 42.7761C1.3125 64.664 16.5938 85.3735 38.5182 89.5951C64.1725 94.5358 88.4738 74.972 89.1849 48.8098C89.1889 48.6067 89.2011 48.4035 89.1971 48.2004C89.1727 47.0668 89.4449 46.0754 90.8142 46.1444C92.1916 46.2135 92.3947 47.3065 92.2403 48.371C91.6227 52.5723 91.383 56.8994 90.1966 60.9422C84.232 81.2414 64.7454 94.5643 43.3126 93.2803C22.5137 92.0329 4.78644 75.9594 1.34501 55.2295C-3.61196 25.3414 20.9413 -0.962983 51.0731 2.03558C53.8848 2.31593 56.6924 2.92539 59.4146 3.68925C62.0638 4.42873 64.6032 5.56233 67.3702 6.5903V6.58623Z" fill="black"/>
<path d="M46.1161 93.5648C45.1816 93.5648 44.243 93.5363 43.3085 93.4794C22.3511 92.2239 4.61981 76.1504 1.154 55.262C-1.23103 40.9275 3.06772 26.662 12.9451 16.1183C22.7899 5.60705 36.6938 0.398175 51.0934 1.83244C53.645 2.08436 56.3876 2.62881 59.4715 3.49018C61.3121 4.0062 63.0673 4.69692 64.9323 5.42828C65.7083 5.73301 66.4966 6.0418 67.3011 6.34247L71.2829 0.999512L78.1251 16.5286L61.2552 14.6759L65.0826 9.35728C59.8128 6.72034 54.3114 5.31451 48.2736 5.0626C37.4943 4.6116 27.0562 8.22368 18.8813 15.2244C10.7063 22.2251 5.48119 32.0171 4.17288 42.8006C2.893 53.3361 5.74123 63.9489 12.1893 72.6886C18.6415 81.4283 28.0029 87.3604 38.5588 89.396C50.7074 91.7364 63.2786 88.5794 73.0422 80.7376C82.8342 72.8715 88.6445 61.2307 88.9817 48.8058L88.9898 48.6189C88.9939 48.4807 89.002 48.3426 88.9979 48.2045C88.9817 47.3065 89.1483 46.7133 89.5302 46.3476C89.8349 46.051 90.2697 45.9169 90.8304 45.9454C91.3911 45.9738 91.8218 46.1648 92.1062 46.5102C92.4556 46.9368 92.5694 47.5747 92.4475 48.4076C92.2687 49.6103 92.1225 50.8455 91.9803 52.036C91.6227 55.0183 91.253 58.1062 90.3997 61.0032C87.5068 70.848 81.2131 79.5065 72.6806 85.3776C64.9363 90.7084 55.5994 93.5729 46.1202 93.5729L46.1161 93.5648ZM46.4087 2.00309C33.8253 2.00309 21.9367 7.11039 13.2417 16.3945C3.45371 26.8448 -0.808469 40.9884 1.55218 55.197C4.98956 75.8985 22.5583 91.8298 43.3329 93.0772C53.6694 93.6948 64.01 90.8425 72.449 85.0404C80.9083 79.2221 87.1452 70.6449 90.0097 60.8854C90.8507 58.0168 91.2205 54.9492 91.578 51.9831C91.7202 50.7886 91.8705 49.5493 92.0493 48.3426C92.1225 47.851 92.1387 47.1765 91.7974 46.7621C91.5902 46.5101 91.257 46.3679 90.8141 46.3436C90.3672 46.3232 90.0422 46.4167 89.8187 46.632C89.5302 46.9124 89.3961 47.4243 89.4083 48.1923C89.4083 48.3385 89.4083 48.4848 89.4002 48.6311V48.8099C89.0548 61.3567 83.1877 73.1071 73.3022 81.0504C63.4452 88.9694 50.7562 92.1549 38.4856 89.7942C27.8322 87.7424 18.3774 81.7534 11.8643 72.9324C5.35117 64.1074 2.47857 53.389 3.77063 42.7518C5.09113 31.8668 10.365 21.9854 18.6171 14.9196C26.8733 7.84988 37.413 4.20529 48.2899 4.66035C54.4698 4.91633 60.0891 6.37091 65.4767 9.10537L65.688 9.21101L61.9906 14.3468L77.4669 16.0451L71.1894 1.79588L67.4392 6.82192L67.297 6.7691C66.4397 6.45217 65.6027 6.12306 64.7779 5.79802C62.9251 5.07073 61.1739 4.38406 59.3577 3.87211C56.2982 3.0148 53.58 2.47848 51.0487 2.22656C49.4926 2.07217 47.9405 1.99497 46.4046 1.99497L46.4087 2.00309Z" fill="black"/>
<path d="M46.116 93.8695C45.1734 93.8695 44.2308 93.841 43.2881 93.7842C22.1885 92.5205 4.33937 76.3373 0.849181 55.3108C-1.54398 40.8828 2.78321 26.5238 12.7215 15.911C22.6314 5.33075 36.6287 0.0853009 51.1218 1.5277C53.6937 1.78367 56.4485 2.32812 59.5486 3.19763C61.4014 3.7177 63.1688 4.40843 65.0378 5.14384C65.7448 5.42013 66.4558 5.70049 67.1872 5.97678L71.3478 0.402222L78.6126 16.8943L60.6985 14.9278L64.6193 9.47916C59.4876 6.96411 54.1244 5.61923 48.2532 5.37544C37.547 4.93256 27.1902 8.51214 19.0721 15.4641C10.9622 22.4079 5.77771 32.1309 4.47345 42.8371C3.20171 53.2955 6.02962 63.8311 12.433 72.5098C18.8365 81.1886 28.1369 87.0801 38.6156 89.0953C50.6789 91.4194 63.1566 88.2827 72.8511 80.4979C82.5741 72.6886 88.3437 61.1332 88.6769 48.7936L88.685 48.6067C88.6891 48.4726 88.6972 48.3426 88.6931 48.2085C88.6809 47.5869 88.7338 46.693 89.3188 46.1241C89.6886 45.7666 90.2046 45.6041 90.8466 45.6366C91.4967 45.6691 92.0005 45.8966 92.3418 46.311C92.7481 46.8067 92.8822 47.5218 92.7481 48.4442C92.5734 49.6428 92.423 50.8739 92.2808 52.0644C91.9192 55.0589 91.5495 58.159 90.6881 61.0804C87.7749 70.9943 81.4405 79.7096 72.8471 85.6173C65.05 90.9806 55.6521 93.8654 46.112 93.8654L46.116 93.8695ZM46.4086 2.30781C33.9105 2.30781 22.0991 7.3826 13.4651 16.6017C3.7421 26.9829 -0.491638 41.0331 1.85276 55.1483C5.26576 75.7115 22.7167 91.5373 43.3491 92.7724C53.6206 93.386 63.892 90.554 72.2742 84.7885C80.6767 79.0108 86.8688 70.4905 89.717 60.8C90.554 57.9558 90.9197 54.9004 91.2732 51.9465C91.4154 50.7479 91.5657 49.5087 91.7445 48.2979C91.8095 47.8672 91.8258 47.2862 91.5576 46.9571C91.4032 46.7702 91.1554 46.6686 90.7978 46.6523C90.4362 46.632 90.1883 46.7011 90.0299 46.8555C89.8064 47.0708 89.7008 47.5218 89.713 48.1882C89.713 48.3385 89.713 48.4929 89.7048 48.6433V48.822C89.3554 61.4582 83.4477 73.294 73.4931 81.2902C63.567 89.266 50.7845 92.4718 38.4287 90.0949C27.6981 88.0268 18.1782 81.9971 11.6204 73.1112C5.0626 64.2252 2.16968 53.4296 3.46987 42.7152C4.80256 31.7571 10.109 21.8025 18.418 14.688C26.731 7.56951 37.3479 3.90054 48.302 4.35561C54.5266 4.61564 60.1865 6.07835 65.6148 8.83313L66.143 9.10129L62.5431 14.103L76.9752 15.6876L71.1203 2.40126L67.5488 7.19164L67.1913 7.05756C66.3299 6.73657 65.4929 6.40746 64.6681 6.08648C62.8234 5.35919 61.0804 4.67659 59.2764 4.17277C56.2331 3.31952 53.5312 2.78725 51.0202 2.53534C49.4762 2.38095 47.9363 2.30781 46.4045 2.30781H46.4086Z" fill="black"/>
<path d="M46.1161 94.0727C45.1734 94.0727 44.2186 94.0442 43.276 93.9873C22.0829 92.7197 4.15657 76.4673 0.650123 55.3474C-1.75522 40.8543 2.58822 26.4304 12.5712 15.7729C22.5298 5.14387 36.5841 -0.121893 51.1421 1.32863C53.7222 1.5846 56.4932 2.13312 59.6055 3.00262C61.4705 3.5227 63.242 4.22155 65.1151 4.95697L65.1719 4.98134C65.8098 5.23326 66.4599 5.48517 67.1182 5.73708L71.3925 0L78.9417 17.134L60.3328 15.0903L64.3187 9.55638C59.2764 7.11853 54.0188 5.81834 48.2533 5.57862C37.6039 5.1398 27.2877 8.7072 19.2103 15.6185C11.1329 22.5298 5.97277 32.204 4.67664 42.8615C3.41302 53.2671 6.22468 63.7539 12.5997 72.388C18.9746 81.0261 28.2263 86.8891 38.6562 88.8963C50.6586 91.2082 63.0795 88.0877 72.7252 80.3394C82.4035 72.5667 88.1446 61.0682 88.4778 48.7896L88.4859 48.5986C88.49 48.4483 88.4941 48.3304 88.4941 48.2126C88.4819 47.5503 88.5388 46.6036 89.1807 45.9779C89.5911 45.5797 90.1599 45.3969 90.8588 45.4334C91.5698 45.47 92.1224 45.7219 92.5003 46.1851C92.9431 46.7255 93.0935 47.4975 92.9513 48.4767C92.7725 49.6834 92.6262 50.9064 92.484 52.0928C92.1224 55.0955 91.7486 58.2037 90.8872 61.1454C87.9618 71.104 81.599 79.8559 72.9649 85.7961C65.2004 91.1391 55.6643 94.0767 46.1161 94.0808V94.0727ZM46.4045 1.49522C33.683 1.49522 21.6644 6.6594 12.8719 16.0492C2.97421 26.6132 -1.33673 40.9153 1.04831 55.2783C4.52224 76.2113 22.2901 92.3215 43.2963 93.581C53.6897 94.2027 64.274 91.2732 72.7293 85.4549C81.2821 79.5715 87.5921 70.8927 90.489 61.0276C91.3423 58.1184 91.7161 55.0305 92.0736 52.0441C92.2159 50.8577 92.3621 49.6265 92.5409 48.4157C92.6669 47.5544 92.545 46.888 92.1793 46.4411C91.8786 46.0713 91.4235 45.8682 90.8303 45.8397C90.2412 45.8113 89.7821 45.9576 89.457 46.2704C88.9288 46.7824 88.8841 47.6194 88.8922 48.2045C88.8922 48.3304 88.8922 48.4523 88.8841 48.5783L88.876 48.8017C88.5388 61.1982 82.7448 72.8105 72.9731 80.6563C63.2298 88.4818 50.6952 91.6307 38.5709 89.2945C28.0435 87.267 18.6984 81.3471 12.2624 72.6277C5.8265 63.9083 2.9864 53.3199 4.26627 42.8127C5.57458 32.0578 10.7835 22.286 18.9381 15.3056C27.0927 8.32526 37.5023 4.72131 48.2614 5.16825C54.1691 5.41203 59.5486 6.76098 64.7087 9.29228L64.9241 9.39792L61.0642 14.7612L78.2835 16.6505L71.3031 0.800428L67.2604 6.22059L67.1182 6.16777C66.4071 5.8996 65.7123 5.62738 65.0257 5.35515L64.9688 5.33077C63.1038 4.59941 61.3445 3.90463 59.4999 3.38861C56.4119 2.52318 53.6653 1.97872 51.1055 1.72681C49.5331 1.56835 47.9607 1.49115 46.4045 1.49115V1.49522ZM46.112 93.0569C45.1897 93.0569 44.2633 93.0284 43.341 92.9756C22.6152 91.7323 5.08701 75.8375 1.65777 55.1808C-0.702885 41.0047 3.5471 26.8936 13.3148 16.4677C21.9854 7.20792 33.7399 2.10874 46.4086 2.10874C47.9445 2.10874 49.5047 2.18594 51.0446 2.34034C53.5678 2.59225 56.2778 3.12858 59.3333 3.98183C61.1495 4.48971 62.8926 5.17637 64.7453 5.90367C65.5701 6.22871 66.4071 6.55782 67.2644 6.87474L67.4798 6.95601L71.1691 2.00717L77.3043 15.9354L62.1774 14.2736L65.8424 9.18258L65.5254 9.02005C60.1256 6.27747 54.4901 4.82288 48.2939 4.56285C37.3764 4.10778 26.8245 7.76456 18.548 14.8465C10.2796 21.9244 4.99356 31.8302 3.669 42.7396C2.37287 53.4012 5.2536 64.148 11.783 72.9893C18.3083 81.8346 27.7834 87.8358 38.4653 89.8917C50.7642 92.2605 63.4817 89.0669 73.3631 81.1277C83.273 73.1681 89.1523 61.3892 89.4936 48.8139V48.6352C89.5058 48.4848 89.5098 48.3385 89.5098 48.1882C89.4936 47.4528 89.6195 46.9652 89.8877 46.7052C90.0909 46.5061 90.3956 46.4208 90.806 46.4451C91.2245 46.4655 91.5211 46.5914 91.712 46.823C91.9639 47.1318 92.0452 47.6397 91.9436 48.3223C91.7608 49.5575 91.6105 50.8373 91.4723 51.9669C91.1148 54.937 90.7491 57.9965 89.908 60.8529C87.0476 70.588 80.827 79.1449 72.388 84.951C64.725 90.2209 55.4896 93.0528 46.1079 93.0528L46.112 93.0569ZM46.4127 2.51099C33.8577 2.51099 22.2129 7.56547 13.6154 16.7399C3.9331 27.0764 -0.280324 41.0616 2.05189 55.1158C5.44863 75.5856 22.8224 91.3382 43.3613 92.5734C53.5881 93.1828 63.8189 90.3631 72.1564 84.6219C80.5182 78.8686 86.686 70.3889 89.518 60.7432C90.3468 57.9193 90.7125 54.8761 91.066 51.9344C91.2041 50.7927 91.3545 49.5087 91.5373 48.2695C91.6186 47.7169 91.5698 47.2984 91.3951 47.0871C91.2813 46.9449 91.0782 46.8718 90.7816 46.8555C90.485 46.8393 90.2818 46.888 90.164 47.0018C90.038 47.1237 89.8958 47.4244 89.9121 48.1841C89.9121 48.3385 89.9121 48.497 89.904 48.6514V48.8302C89.5545 61.5273 83.6184 73.4159 73.615 81.4486C63.6402 89.4611 50.7967 92.6831 38.384 90.294C27.6046 88.2177 18.0401 82.1597 11.4498 73.2331C4.85948 64.3024 1.95437 53.458 3.26269 42.6909C4.59944 31.6799 9.93428 21.6806 18.2799 14.5377C26.6295 7.38669 37.2951 3.70147 48.3061 4.15654C54.5592 4.41658 60.2515 5.88741 65.7042 8.65438L66.4437 9.02818L62.9088 13.9405L76.6461 15.4479L71.0756 2.80353L67.622 7.43545L67.1222 7.24855C66.2608 6.92756 65.4239 6.59845 64.595 6.27341C62.7544 5.55018 61.0195 4.86758 59.2236 4.36376C56.1925 3.51457 53.5028 2.98231 51.004 2.73446C49.4803 2.58412 47.9323 2.50692 46.4086 2.50692L46.4127 2.51099Z" fill="black"/>
</g>
<defs>
<clipPath id="clip0_229_59">
<rect width="93" height="94.0727" fill="white"/>
</clipPath>
</defs>
</svg>
