<svg width="247" height="34" viewBox="0 0 247 34" fill="none" xmlns="http://www.w3.org/2000/svg">
<path d="M0.772 31.18V20.344C0.772 19.984 0.88 19.696 1.096 19.48C1.312 19.264 1.6 19.156 1.96 19.156H5.092C5.452 19.156 5.74 19.264 5.956 19.48C6.172 19.696 6.28 19.984 6.28 20.344V25.996C6.28 26.356 6.388 26.644 6.604 26.86C6.82 27.076 7.108 27.184 7.468 27.184H12.004C12.364 27.184 12.652 27.076 12.868 26.86C13.084 26.644 13.192 26.356 13.192 25.996V18.76C13.192 18.4 13.084 18.112 12.868 17.896C12.652 17.68 12.364 17.572 12.004 17.572H3.112C2.752 17.572 2.464 17.464 2.248 17.248C2.032 17.032 1.924 16.744 1.924 16.384V5.008C1.924 4.648 2.032 4.36 2.248 4.144C2.464 3.928 2.752 3.82 3.112 3.82H6.424C6.784 3.82 7.072 3.928 7.288 4.144C7.504 4.36 7.612 4.648 7.612 5.008V11.308C7.612 11.668 7.72 11.956 7.936 12.172C8.152 12.388 8.44 12.496 8.8 12.496H12.004C12.364 12.496 12.652 12.388 12.868 12.172C13.084 11.956 13.192 11.668 13.192 11.308V2.344C13.192 1.984 13.3 1.696 13.516 1.48C13.732 1.264 14.02 1.156 14.38 1.156H17.584C17.944 1.156 18.232 1.264 18.448 1.48C18.664 1.696 18.772 1.984 18.772 2.344V11.308C18.772 11.668 18.88 11.956 19.096 12.172C19.312 12.388 19.6 12.496 19.96 12.496H23.092C23.452 12.496 23.74 12.388 23.956 12.172C24.172 11.956 24.28 11.668 24.28 11.308V5.008C24.28 4.648 24.388 4.36 24.604 4.144C24.82 3.928 25.108 3.82 25.468 3.82H28.816C29.176 3.82 29.464 3.928 29.68 4.144C29.896 4.36 30.004 4.648 30.004 5.008V16.384C30.004 16.744 29.896 17.032 29.68 17.248C29.464 17.464 29.176 17.572 28.816 17.572H19.96C19.6 17.572 19.312 17.68 19.096 17.896C18.88 18.112 18.772 18.4 18.772 18.76V25.996C18.772 26.356 18.88 26.644 19.096 26.86C19.312 27.076 19.6 27.184 19.96 27.184H24.532C24.892 27.184 25.18 27.076 25.396 26.86C25.612 26.644 25.72 26.356 25.72 25.996V20.344C25.72 19.984 25.828 19.696 26.044 19.48C26.26 19.264 26.548 19.156 26.908 19.156H30.04C30.4 19.156 30.688 19.264 30.904 19.48C31.12 19.696 31.228 19.984 31.228 20.344V31.18C31.228 31.54 31.12 31.828 30.904 32.044C30.688 32.26 30.4 32.368 30.04 32.368H1.96C1.6 32.368 1.312 32.26 1.096 32.044C0.88 31.828 0.772 31.54 0.772 31.18ZM42.424 14.26V2.992C42.424 2.632 42.532 2.344 42.748 2.128C42.964 1.912 43.252 1.804 43.612 1.804H60.388C60.748 1.804 61.036 1.912 61.252 2.128C61.468 2.344 61.576 2.632 61.576 2.992V14.26C61.576 14.62 61.468 14.908 61.252 15.124C61.036 15.34 60.748 15.448 60.388 15.448H43.612C43.252 15.448 42.964 15.34 42.748 15.124C42.532 14.908 42.424 14.62 42.424 14.26ZM49.012 11.056H54.988C55.348 11.056 55.636 10.948 55.852 10.732C56.068 10.516 56.176 10.228 56.176 9.868V7.492C56.176 7.132 56.068 6.844 55.852 6.628C55.636 6.412 55.348 6.304 54.988 6.304H49.012C48.652 6.304 48.364 6.412 48.148 6.628C47.932 6.844 47.824 7.132 47.824 7.492V9.868C47.824 10.228 47.932 10.516 48.148 10.732C48.364 10.948 48.652 11.056 49.012 11.056ZM36.34 31.504V18.904C36.34 18.544 36.448 18.256 36.664 18.04C36.88 17.824 37.168 17.716 37.528 17.716H49.732C50.092 17.716 50.38 17.824 50.596 18.04C50.812 18.256 50.92 18.544 50.92 18.904V31.504C50.92 31.864 50.812 32.152 50.596 32.368C50.38 32.584 50.092 32.692 49.732 32.692H37.528C37.168 32.692 36.88 32.584 36.664 32.368C36.448 32.152 36.34 31.864 36.34 31.504ZM53.116 31.504V18.904C53.116 18.544 53.224 18.256 53.44 18.04C53.656 17.824 53.944 17.716 54.304 17.716H66.508C66.868 17.716 67.156 17.824 67.372 18.04C67.588 18.256 67.696 18.544 67.696 18.904V31.504C67.696 31.864 67.588 32.152 67.372 32.368C67.156 32.584 66.868 32.692 66.508 32.692H54.304C53.944 32.692 53.656 32.584 53.44 32.368C53.224 32.152 53.116 31.864 53.116 31.504ZM42.676 28.156H44.62C44.98 28.156 45.268 28.048 45.484 27.832C45.7 27.616 45.808 27.328 45.808 26.968V23.62C45.808 23.26 45.7 22.972 45.484 22.756C45.268 22.54 44.98 22.432 44.62 22.432H42.676C42.316 22.432 42.028 22.54 41.812 22.756C41.596 22.972 41.488 23.26 41.488 23.62V26.968C41.488 27.328 41.596 27.616 41.812 27.832C42.028 28.048 42.316 28.156 42.676 28.156ZM59.452 28.156H61.396C61.756 28.156 62.044 28.048 62.26 27.832C62.476 27.616 62.584 27.328 62.584 26.968V23.62C62.584 23.26 62.476 22.972 62.26 22.756C62.044 22.54 61.756 22.432 61.396 22.432H59.452C59.092 22.432 58.804 22.54 58.588 22.756C58.372 22.972 58.264 23.26 58.264 23.62V26.968C58.264 27.328 58.372 27.616 58.588 27.832C58.804 28.048 59.092 28.156 59.452 28.156ZM81.988 32.944C81.772 31.384 81.52 30.148 81.232 29.236C81.088 28.708 81.268 28.444 81.772 28.444H84.076C84.58 28.444 84.952 28.372 85.192 28.228C85.408 28.084 85.516 27.76 85.516 27.256V24.16C85.516 23.8 85.408 23.512 85.192 23.296C84.976 23.08 84.688 22.972 84.328 22.972H72.52C72.16 22.972 71.872 22.864 71.656 22.648C71.44 22.432 71.332 22.144 71.332 21.784V19.12C71.332 18.76 71.44 18.472 71.656 18.256C71.872 18.04 72.16 17.932 72.52 17.932H84.328C84.688 17.932 84.976 17.824 85.192 17.608C85.408 17.392 85.516 17.104 85.516 16.744C85.516 16.384 85.408 16.096 85.192 15.88C84.976 15.664 84.688 15.556 84.328 15.556H75.292C74.932 15.556 74.644 15.448 74.428 15.232C74.212 15.016 74.104 14.728 74.104 14.368V11.812C74.104 11.452 74.212 11.164 74.428 10.948C74.644 10.732 74.932 10.624 75.292 10.624H84.328C84.688 10.624 84.976 10.516 85.192 10.3C85.408 10.084 85.516 9.796 85.516 9.436V9.256C85.516 8.872 85.396 8.572 85.156 8.356C84.94 8.14 84.64 8.056 84.256 8.104C81.376 8.272 78.496 8.38 75.616 8.428C74.944 8.428 74.548 8.092 74.428 7.42C74.308 6.94 74.2 6.484 74.104 6.052C74.008 5.596 73.888 5.128 73.744 4.648C73.504 3.88 73.78 3.496 74.572 3.496C75.148 3.52 75.736 3.532 76.336 3.532C76.336 3.532 76.972 3.532 78.244 3.532C86.428 3.388 92.788 2.5 97.324 0.868C97.924 0.675999 98.392 0.807999 98.728 1.264L100.564 3.748C100.852 4.132 100.936 4.492 100.816 4.828C100.72 5.14 100.444 5.368 99.988 5.512C98.212 6.088 95.644 6.652 92.284 7.204C91.612 7.3 91.276 7.684 91.276 8.356V9.436C91.276 9.796 91.384 10.084 91.6 10.3C91.816 10.516 92.104 10.624 92.464 10.624H100.78C101.14 10.624 101.428 10.732 101.644 10.948C101.86 11.164 101.968 11.452 101.968 11.812V14.368C101.968 14.728 101.86 15.016 101.644 15.232C101.428 15.448 101.14 15.556 100.78 15.556H92.464C92.104 15.556 91.816 15.664 91.6 15.88C91.384 16.096 91.276 16.384 91.276 16.744C91.276 17.104 91.384 17.392 91.6 17.608C91.816 17.824 92.104 17.932 92.464 17.932H103.588C103.948 17.932 104.236 18.04 104.452 18.256C104.668 18.472 104.776 18.76 104.776 19.12V21.784C104.776 22.144 104.668 22.432 104.452 22.648C104.236 22.864 103.948 22.972 103.588 22.972H92.464C92.104 22.972 91.816 23.08 91.6 23.296C91.384 23.512 91.276 23.8 91.276 24.16V29.56C91.276 31.912 90.22 33.28 88.108 33.664C87.46 33.784 86.752 33.844 85.984 33.844H82.996C82.396 33.844 82.06 33.544 81.988 32.944ZM111.436 32.584V18.508C111.436 18.22 111.388 18.064 111.292 18.04C111.196 17.992 111.052 18.1 110.86 18.364C110.668 18.604 110.452 18.724 110.212 18.724C109.972 18.724 109.744 18.652 109.528 18.508C109.336 18.34 109.12 18.184 108.88 18.04C108.664 17.896 108.448 17.752 108.232 17.608C108.04 17.464 107.848 17.344 107.656 17.248C107.488 17.128 107.308 17.008 107.116 16.888C106.42 16.456 106.324 15.916 106.828 15.268C108.964 12.628 110.752 9.292 112.192 5.26C112.648 4.036 113.008 2.884 113.272 1.804C113.536 1.012 114.028 0.711999 114.748 0.903999L117.52 1.552C117.88 1.648 118.132 1.828 118.276 2.092C118.444 2.356 118.432 2.8 118.24 3.424C117.928 4.456 117.532 5.572 117.052 6.772C116.596 7.948 116.368 8.62 116.368 8.788V32.584C116.368 32.944 116.26 33.232 116.044 33.448C115.828 33.664 115.54 33.772 115.18 33.772H112.624C112.264 33.772 111.976 33.664 111.76 33.448C111.544 33.232 111.436 32.944 111.436 32.584ZM119.14 6.484V3.964C119.14 3.604 119.248 3.316 119.464 3.1C119.68 2.884 119.968 2.776 120.328 2.776H137.68C138.04 2.776 138.328 2.884 138.544 3.1C138.76 3.316 138.868 3.604 138.868 3.964V6.484C138.868 6.844 138.76 7.132 138.544 7.348C138.328 7.564 138.04 7.672 137.68 7.672H120.328C119.968 7.672 119.68 7.564 119.464 7.348C119.248 7.132 119.14 6.844 119.14 6.484ZM135.772 32.836L135.16 31.396C134.944 30.868 134.572 30.652 134.044 30.748C132.1 31.036 130.492 31.24 129.22 31.36C127.948 31.504 126.916 31.624 126.124 31.72L121.732 32.188C121.324 32.236 120.928 32.272 120.544 32.296C120.184 32.32 119.848 32.344 119.536 32.368C118.888 32.416 118.48 32.116 118.312 31.468L117.556 27.904C117.508 27.664 117.532 27.472 117.628 27.328C117.748 27.16 117.928 27.076 118.168 27.076L120.328 26.932C120.832 26.932 121.168 26.68 121.336 26.176C121.6 25.408 121.828 24.7 122.02 24.052C122.212 23.404 122.392 22.792 122.56 22.216C122.728 21.64 122.872 21.124 122.992 20.668C123.112 20.212 123.208 19.84 123.28 19.552C123.376 19.24 123.46 18.916 123.532 18.58C123.628 18.244 123.568 17.944 123.352 17.68C123.136 17.416 122.812 17.284 122.38 17.284H118.6C118.24 17.284 117.952 17.176 117.736 16.96C117.52 16.744 117.412 16.456 117.412 16.096V13.36C117.412 13 117.52 12.712 117.736 12.496C117.952 12.28 118.24 12.172 118.6 12.172H139.12C139.48 12.172 139.768 12.28 139.984 12.496C140.2 12.712 140.308 13 140.308 13.36V16.096C140.308 16.456 140.2 16.744 139.984 16.96C139.768 17.176 139.48 17.284 139.12 17.284H130.48C130.216 17.284 129.976 17.368 129.76 17.536C129.544 17.68 129.4 17.884 129.328 18.148C128.512 20.956 127.792 23.236 127.168 24.988C127.024 25.444 127.036 25.792 127.204 26.032C127.396 26.272 127.732 26.368 128.212 26.32L131.092 26.032C131.5 25.984 131.764 25.852 131.884 25.636C132.028 25.396 131.992 25.084 131.776 24.7C131.44 24.172 130.96 23.464 130.336 22.576C130.072 22.216 129.976 21.868 130.048 21.532C130.12 21.196 130.348 20.932 130.732 20.74L133.18 19.444C133.42 19.348 133.66 19.3 133.9 19.3C134.14 19.3 134.368 19.444 134.584 19.732C136.792 22.516 138.82 26.032 140.668 30.28C140.908 30.76 140.752 31.132 140.2 31.396C139.888 31.516 139.636 31.636 139.444 31.756C137.764 32.572 136.84 33.04 136.672 33.16C136.24 33.4 135.94 33.292 135.772 32.836ZM154.744 27.796C154.528 27.796 154.3 27.784 154.06 27.76C152.476 27.592 151.108 26.236 149.956 23.692C147.748 18.82 146.56 13.852 146.392 8.788V8.752C146.392 8.368 146.524 8.044 146.788 7.78C147.052 7.516 147.376 7.384 147.76 7.384L150.496 7.42C150.928 7.42 151.264 7.564 151.504 7.852C151.768 8.116 151.9 8.56 151.9 9.184C151.9 9.808 151.96 10.648 152.08 11.704C152.224 12.76 152.416 13.84 152.656 14.944C153.184 17.416 153.856 19.336 154.672 20.704C155.008 21.064 155.26 21.268 155.428 21.316C155.716 21.316 156.004 21.22 156.292 21.028C156.58 20.836 156.88 20.608 157.192 20.344C157.936 19.672 158.452 19.132 158.74 18.724C158.932 18.484 159.16 18.364 159.424 18.364C159.688 18.364 159.892 18.532 160.036 18.868C160.18 19.18 160.312 19.444 160.432 19.66L161.044 20.596C161.26 20.956 161.464 21.244 161.656 21.46C161.968 21.772 162.124 22.096 162.124 22.432C162.124 22.672 162.04 22.912 161.872 23.152C161.296 23.92 160.66 24.628 159.964 25.276C159.268 25.924 158.392 26.524 157.336 27.076C156.472 27.556 155.608 27.796 154.744 27.796ZM166.012 7.924C166.252 7.78 166.528 7.708 166.84 7.708C167.152 7.708 167.44 7.84 167.704 8.104C169.6 10.144 171.34 12.724 172.924 15.844C173.068 16.132 173.2 16.396 173.32 16.636C173.44 16.876 173.548 17.116 173.644 17.356C173.74 17.572 173.788 17.776 173.788 17.968C173.788 18.136 173.728 18.304 173.608 18.472C173.44 18.808 173.128 19.036 172.672 19.156C172.048 19.324 171.508 19.528 171.052 19.768C170.62 19.984 170.308 20.128 170.116 20.2C169.924 20.272 169.768 20.308 169.648 20.308C169.12 20.308 168.736 20.008 168.496 19.408C167.344 16.6 165.76 13.912 163.744 11.344C163.456 10.984 163.312 10.636 163.312 10.3C163.312 9.892 163.528 9.532 163.96 9.22L166.012 7.924ZM199.816 31.936C199.624 32.08 199.36 32.152 199.024 32.152C198.712 32.152 198.46 31.972 198.268 31.612C196.324 28.228 193.564 24.52 189.988 20.488C189.364 19.816 188.728 19.18 188.08 18.58C187.36 17.908 187 17.236 187 16.564C187 15.868 187.372 15.22 188.116 14.62C189.004 13.876 190.072 12.856 191.32 11.56C194.32 8.416 196.492 5.692 197.836 3.388C198.148 2.884 198.52 2.632 198.952 2.632C199.312 2.632 199.624 2.716 199.888 2.884L202.516 4.648C202.924 4.936 203.128 5.32 203.128 5.8C203.128 6.088 203.032 6.34 202.84 6.556C202.672 6.772 202.516 6.952 202.372 7.096C202.252 7.24 202.072 7.444 201.832 7.708C201.616 7.972 201.328 8.296 200.968 8.68C200.632 9.04 200.284 9.424 199.924 9.832L197.692 12.208C197.332 12.616 196.972 13 196.612 13.36L193.84 16.132C193.72 16.276 193.66 16.42 193.66 16.564C193.66 16.708 193.768 16.9 193.984 17.14C194.2 17.332 194.452 17.572 194.74 17.86C195.628 18.82 196.264 19.54 196.648 20.02C197.056 20.5 197.596 21.136 198.268 21.928C199.396 23.248 201.112 25.408 203.416 28.408C203.584 28.648 203.668 28.876 203.668 29.092C203.668 29.476 203.452 29.776 203.02 29.992C201.484 30.76 200.416 31.408 199.816 31.936ZM239.92 30.46C238.912 30.844 237.856 31.036 236.752 31.036C235.648 31.036 234.736 30.88 234.016 30.568C233.272 30.256 232.672 29.824 232.216 29.272C231.4 28.264 230.992 26.728 230.992 24.664V22.36C230.992 21.184 230.884 20.452 230.668 20.164C230.452 19.876 229.972 19.732 229.228 19.732C228.508 19.732 227.848 20.02 227.248 20.596C226.648 21.148 226.156 21.844 225.772 22.684C224.62 25.156 223.936 26.656 223.72 27.184C223.144 28.456 222.784 29.284 222.64 29.668C222.424 30.22 222.028 30.496 221.452 30.496C221.26 30.496 221.044 30.448 220.804 30.352L218.392 29.272C217.984 29.104 217.72 28.84 217.6 28.48C217.552 28.336 217.528 28.18 217.528 28.012C217.528 27.844 217.576 27.664 217.672 27.472C217.792 27.256 217.888 27.064 217.96 26.896C218.056 26.728 218.164 26.548 218.284 26.356L222.316 18.256C222.724 17.44 223.132 16.636 223.54 15.844L229.408 3.712C229.696 3.184 230.104 2.92 230.632 2.92C230.776 2.92 230.98 2.98 231.244 3.1L233.98 4.288C234.58 4.528 234.88 4.924 234.88 5.476C234.88 5.764 234.784 6.052 234.592 6.34C233.056 8.812 231.484 11.572 229.876 14.62C229.804 14.74 229.768 14.836 229.768 14.908C229.792 14.908 229.828 14.908 229.876 14.908C229.948 14.908 230.032 14.908 230.128 14.908C230.536 14.836 231.1 14.8 231.82 14.8C232.54 14.8 233.212 14.956 233.836 15.268C234.484 15.58 234.988 16.024 235.348 16.6C235.9 17.512 236.176 18.952 236.176 20.92V21.964V23.044C236.176 24.172 236.26 24.868 236.428 25.132C236.572 25.372 236.92 25.492 237.472 25.492C238.048 25.492 238.576 25.324 239.056 24.988C239.56 24.628 240.04 24.172 240.496 23.62C241.312 22.612 241.972 21.508 242.476 20.308C242.62 19.924 242.836 19.732 243.124 19.732C243.412 19.732 243.676 19.9 243.916 20.236C244.276 20.668 244.864 21.232 245.68 21.928L246.256 22.468C246.592 22.732 246.76 23.044 246.76 23.404C246.76 23.596 246.7 23.8 246.58 24.016C244.996 27.208 242.776 29.356 239.92 30.46Z" fill="#1B1B1B"/>
</svg>
