<svg width="93" height="93" viewBox="0 0 93 93" fill="none" xmlns="http://www.w3.org/2000/svg">
<g opacity="0.8" clip-path="url(#clip0_1_121)">
<path d="M46.5 93C20.8625 93 0 72.1375 0 46.5C0 20.8625 20.8625 0 46.5 0C72.1375 0 93 20.8625 93 46.5C93 72.1375 72.1375 93 46.5 93ZM46.5 5.55224C23.9232 5.55224 5.55224 23.9232 5.55224 46.5C5.55224 69.0768 23.9232 87.4478 46.5 87.4478C69.0768 87.4478 87.4478 69.0768 87.4478 46.5C87.4478 23.9232 69.0768 5.55224 46.5 5.55224Z" fill="#71E26F"/>
<path d="M60.0476 61.1857C57.1118 61.3245 53.0864 61.1857 50.0813 61.3245C50.2201 65.1486 50.352 68.6257 49.6718 71.9015C45.7852 73.0605 44.1473 72.0403 43.6684 69.3058C43.4672 68.2787 43.5296 63.9132 43.5296 61.4564C40.5245 61.2551 33.022 61.9352 29.4686 60.9081C28.8579 57.3616 30.697 56.9521 33.1539 56.6745C36.0202 56.3344 43.5921 56.1262 43.5921 56.1262L43.3908 51.1431C41.6141 51.1431 36.5685 51.3443 33.834 51.2819C31.7867 51.2125 30.2182 51.0806 29.8087 49.3039C30.1487 47.1177 31.9949 46.5764 34.1741 46.3681C36.5616 46.1669 42.7037 45.8893 42.7037 45.8893C39.4279 42.2734 33.834 34.6946 30.4888 29.9196C29.9405 29.1701 29.6005 27.3934 30.4888 26.0955C31.0371 25.346 32.3349 23.9093 34.7224 26.0955C37.79 28.8925 43.6615 37.0126 46.7985 40.8367C48.2976 39.1294 58.604 25.0753 59.9018 25.0753C61.4009 25.0753 62.8376 26.1649 62.907 28.1429C62.9764 29.5102 62.088 31.0787 60.9984 32.786C58.4027 36.8114 53.2183 42.4052 50.4908 45.7505C50.4908 45.7505 55.4045 45.6811 57.8614 45.9517C60.3876 46.2224 62.5669 46.2918 62.5044 49.297C61.3454 50.3866 59.9087 50.5948 58.3402 50.7267C55.7446 50.9973 52.6076 50.8655 49.9494 50.8655V55.9805C52.1356 56.0499 56.5705 56.1193 60.3252 56.3899C62.9208 56.5912 64.8294 56.5287 64.6212 59.0481C64.4824 60.7554 62.5738 61.4355 60.0476 61.1649V61.1857Z" fill="#71E26F"/>
</g>
<defs>
<clipPath id="clip0_1_121">
<rect width="93" height="93" fill="white"/>
</clipPath>
</defs>
</svg>
