<svg width="93" height="93" viewBox="0 0 93 93" fill="none" xmlns="http://www.w3.org/2000/svg">
<g opacity="0.8" clip-path="url(#clip0_1_49)">
<path d="M46.5 93C20.8625 93 0 72.1375 0 46.5C0 20.8625 20.8625 0 46.5 0C72.1375 0 93 20.8625 93 46.5C93 72.1375 72.1375 93 46.5 93ZM46.5 5.55224C23.9232 5.55224 5.55224 23.9232 5.55224 46.5C5.55224 69.0768 23.9232 87.4478 46.5 87.4478C69.0768 87.4478 87.4478 69.0768 87.4478 46.5C87.4478 23.9232 69.0768 5.55224 46.5 5.55224Z" fill="#121212"/>
<path d="M60.0474 61.1857C57.1117 61.3245 53.0863 61.1857 50.0812 61.3245C50.22 65.1486 50.3518 68.6257 49.6717 71.9015C45.7851 73.0605 44.1472 72.0403 43.6683 69.3058C43.4671 68.2787 43.5295 63.9132 43.5295 61.4564C40.5244 61.2551 33.0219 61.9352 29.4685 60.9081C28.8577 57.3616 30.6969 56.9521 33.1538 56.6745C36.0201 56.3344 43.592 56.1262 43.592 56.1262L43.3907 51.1431C41.614 51.1431 36.5684 51.3443 33.8339 51.2819C31.7865 51.2125 30.218 51.0806 29.8086 49.3039C30.1486 47.1177 31.9947 46.5764 34.174 46.3681C36.5615 46.1669 42.7036 45.8893 42.7036 45.8893C39.4278 42.2734 33.8339 34.6946 30.4887 29.9196C29.9404 29.1701 29.6003 27.3934 30.4887 26.0955C31.037 25.346 32.3348 23.9093 34.7223 26.0955C37.7899 28.8925 43.6614 37.0126 46.7984 40.8367C48.2975 39.1294 58.6038 25.0753 59.9017 25.0753C61.4008 25.0753 62.8374 26.1649 62.9068 28.1429C62.9762 29.5102 62.0879 31.0787 60.9983 32.786C58.4026 36.8114 53.2182 42.4052 50.4906 45.7505C50.4906 45.7505 55.4044 45.6811 57.8612 45.9517C60.3875 46.2224 62.5668 46.2918 62.5043 49.297C61.3453 50.3866 59.9086 50.5948 58.3401 50.7267C55.7444 50.9973 52.6074 50.8655 49.9493 50.8655V55.9805C52.1355 56.0499 56.5703 56.1193 60.325 56.3899C62.9207 56.5912 64.8293 56.5287 64.6211 59.0481C64.4823 60.7554 62.5737 61.4355 60.0474 61.1649V61.1857Z" fill="#121212"/>
</g>
<defs>
<clipPath id="clip0_1_49">
<rect width="93" height="93" fill="white"/>
</clipPath>
</defs>
</svg>
